<svg width="116" height="44" viewBox="0 0 116 44" fill="none" xmlns="http://www.w3.org/2000/svg">
<rect x="8" y="9" width="108" height="26" rx="4" fill="url(#paint0_linear)"/>
<g filter="url(#filter0_d)">
<rect x="8" y="9" width="36" height="26" rx="4" fill="url(#paint1_linear)"/>
<rect x="8" y="9" width="36" height="26" rx="4" fill="url(#paint2_linear)"/>
</g>
<rect x="8" y="9" width="4" height="26" rx="2" fill="url(#paint3_linear)"/>
<path d="M59.236 28.238C58.42 28.238 57.6777 28.0567 57.009 27.694C56.3517 27.32 55.8247 26.7817 55.428 26.079C55.0427 25.365 54.85 24.498 54.85 23.478V20.622C54.85 19.092 55.2807 17.919 56.142 17.103C57.0033 16.2757 58.1707 15.862 59.644 15.862C61.106 15.862 62.2337 16.253 63.027 17.035C63.8317 17.8057 64.234 18.854 64.234 20.18V20.248H62.024V20.112C62.024 19.6927 61.9333 19.313 61.752 18.973C61.582 18.633 61.3213 18.3667 60.97 18.174C60.6187 17.97 60.1767 17.868 59.644 17.868C58.8507 17.868 58.2273 18.1117 57.774 18.599C57.3207 19.0863 57.094 19.7493 57.094 20.588V23.512C57.094 24.3393 57.3207 25.008 57.774 25.518C58.2273 26.0167 58.862 26.266 59.678 26.266C60.494 26.266 61.089 26.0507 61.463 25.62C61.837 25.1893 62.024 24.6453 62.024 23.988V23.818H59.202V21.914H64.234V28H62.16V26.861H61.854C61.7747 27.0537 61.6443 27.2577 61.463 27.473C61.293 27.6883 61.0323 27.8697 60.681 28.017C60.3297 28.1643 59.848 28.238 59.236 28.238ZM65.2559 28V19.568H67.3979V28H65.2559ZM66.3269 18.582C65.9415 18.582 65.6129 18.4573 65.3409 18.208C65.0802 17.9587 64.9499 17.63 64.9499 17.222C64.9499 16.814 65.0802 16.4853 65.3409 16.236C65.6129 15.9867 65.9415 15.862 66.3269 15.862C66.7235 15.862 67.0522 15.9867 67.3129 16.236C67.5735 16.4853 67.7039 16.814 67.7039 17.222C67.7039 17.63 67.5735 17.9587 67.3129 18.208C67.0522 18.4573 66.7235 18.582 66.3269 18.582ZM71.8115 28C71.2562 28 70.8028 27.83 70.4515 27.49C70.1115 27.1387 69.9415 26.674 69.9415 26.096V21.336H67.8335V19.568H69.9415V16.95H72.0835V19.568H74.3955V21.336H72.0835V25.722C72.0835 26.062 72.2422 26.232 72.5595 26.232H74.1915V28H71.8115ZM75.1444 28V16.1H77.2864V20.605H77.5924C77.6831 20.4237 77.8247 20.2423 78.0174 20.061C78.2101 19.8797 78.4651 19.7323 78.7824 19.619C79.1111 19.4943 79.5247 19.432 80.0234 19.432C80.6807 19.432 81.2531 19.585 81.7404 19.891C82.2391 20.1857 82.6244 20.5993 82.8964 21.132C83.1684 21.6533 83.3044 22.2653 83.3044 22.968V28H81.1624V23.138C81.1624 22.5033 81.0037 22.0273 80.6864 21.71C80.3804 21.3927 79.9384 21.234 79.3604 21.234C78.7031 21.234 78.1931 21.455 77.8304 21.897C77.4677 22.3277 77.2864 22.934 77.2864 23.716V28H75.1444ZM87.5102 28.136C86.8529 28.136 86.2749 27.9887 85.7762 27.694C85.2889 27.388 84.9092 26.9687 84.6372 26.436C84.3652 25.9033 84.2292 25.2913 84.2292 24.6V19.568H86.3712V24.43C86.3712 25.0647 86.5242 25.5407 86.8302 25.858C87.1475 26.1753 87.5952 26.334 88.1732 26.334C88.8305 26.334 89.3405 26.1187 89.7032 25.688C90.0659 25.246 90.2472 24.634 90.2472 23.852V19.568H92.3892V28H90.2812V26.895H89.9752C89.8392 27.1783 89.5842 27.456 89.2102 27.728C88.8362 28 88.2695 28.136 87.5102 28.136ZM98.6488 28.238C97.8894 28.238 97.3058 28.1077 96.8978 27.847C96.4898 27.5863 96.1894 27.2973 95.9968 26.98H95.6908V28H93.5828V16.1H95.7248V20.537H96.0308C96.1554 20.333 96.3198 20.1403 96.5238 19.959C96.7391 19.7777 97.0168 19.6303 97.3568 19.517C97.7081 19.3923 98.1388 19.33 98.6488 19.33C99.3288 19.33 99.9578 19.5 100.536 19.84C101.114 20.1687 101.578 20.656 101.93 21.302C102.281 21.948 102.457 22.73 102.457 23.648V23.92C102.457 24.838 102.281 25.62 101.93 26.266C101.578 26.912 101.114 27.405 100.536 27.745C99.9578 28.0737 99.3288 28.238 98.6488 28.238ZM98.0028 26.368C98.6601 26.368 99.2098 26.1583 99.6518 25.739C100.094 25.3083 100.315 24.685 100.315 23.869V23.699C100.315 22.883 100.094 22.2653 99.6518 21.846C99.2211 21.4153 98.6714 21.2 98.0028 21.2C97.3454 21.2 96.7958 21.4153 96.3538 21.846C95.9118 22.2653 95.6908 22.883 95.6908 23.699V23.869C95.6908 24.685 95.9118 25.3083 96.3538 25.739C96.7958 26.1583 97.3454 26.368 98.0028 26.368Z" fill="url(#paint4_linear)"/>
<path d="M27.6665 29.2598C27.6665 29.1451 27.6413 29.0318 27.5926 28.9279C27.5439 28.824 27.4729 28.7321 27.3848 28.6587C27.2966 28.5853 27.1933 28.5322 27.0824 28.5031C26.9714 28.474 26.8553 28.4697 26.7425 28.4905C25.7184 28.6785 24.4253 28.7067 24.0815 27.741C23.7818 26.9932 23.2852 26.3403 22.6445 25.8517C22.5988 25.8269 22.5552 25.7983 22.5142 25.7662C22.4582 25.6183 22.3586 25.4908 22.2286 25.4007C22.0986 25.3105 21.9443 25.2619 21.7861 25.2612H21.7823C21.5755 25.2611 21.377 25.343 21.2304 25.4889C21.0838 25.6348 21.0009 25.8328 21 26.0397C20.997 26.6776 21.6345 27.0863 21.8931 27.2246C22.1981 27.531 22.4432 27.8917 22.6158 28.2881C22.9008 29.0887 23.729 30.3035 26.1095 30.1469C26.1103 30.1744 26.1111 30.2004 26.1115 30.224L26.1149 30.4334C26.1149 30.6409 26.1973 30.8398 26.344 30.9866C26.4907 31.1333 26.6897 31.2157 26.8972 31.2157C27.1047 31.2157 27.3037 31.1333 27.4504 30.9866C27.5971 30.8398 27.6795 30.6409 27.6795 30.4334L27.6757 30.1843C27.6719 30.0361 27.6665 29.8214 27.6665 29.2598ZM36.0116 17.4265C36.0364 17.3287 36.0608 17.2202 36.0822 17.0979C36.2088 16.2261 36.0984 15.3363 35.7629 14.5218C35.7205 14.4156 35.6555 14.3199 35.5723 14.2415C35.4891 14.1632 35.3897 14.1039 35.2812 14.068C35.0027 13.974 33.9744 13.7891 32.0079 15.0459C30.3733 14.6612 28.6717 14.6612 27.037 15.0459C25.0785 13.8075 24.0556 13.9756 23.7798 14.0642C23.6686 14.0987 23.5665 14.1576 23.481 14.2366C23.3956 14.3157 23.3289 14.4129 23.2858 14.5211C22.9434 15.3512 22.8343 16.2592 22.9703 17.1469C22.9894 17.2469 23.0101 17.3394 23.0314 17.4242C22.3833 18.2874 22.0381 19.3404 22.0493 20.4198C22.0472 20.6606 22.0583 20.9014 22.0826 21.141C22.3439 24.7416 24.6908 25.8227 26.3261 26.194C26.2921 26.2918 26.2612 26.3964 26.2337 26.5072C26.1847 26.7085 26.2175 26.921 26.3249 27.0982C26.4323 27.2753 26.6056 27.4026 26.8068 27.4522C27.008 27.5017 27.2206 27.4695 27.398 27.3625C27.5754 27.2555 27.7032 27.0826 27.7533 26.8816C27.803 26.6209 27.9306 26.3814 28.1192 26.1947C28.2332 26.0949 28.3158 25.9641 28.3568 25.8182C28.3979 25.6723 28.3956 25.5176 28.3504 25.373C28.3052 25.2284 28.2189 25.1 28.102 25.0035C27.9851 24.907 27.8427 24.8466 27.6921 24.8295C24.9899 24.5208 23.8168 23.42 23.6403 20.9974C23.6208 20.8055 23.612 20.6126 23.614 20.4198C23.6014 19.6505 23.8556 18.9006 24.3333 18.2974C24.3813 18.2346 24.4324 18.1741 24.4865 18.1164C24.5822 18.0092 24.6466 17.8777 24.6726 17.7363C24.6985 17.5949 24.685 17.4492 24.6335 17.3149C24.5808 17.1738 24.5401 17.0283 24.5121 16.8802C24.4483 16.4591 24.4692 16.0295 24.5735 15.6166C25.2535 15.8086 25.8934 16.1212 26.4629 16.5395C26.557 16.6022 26.6636 16.644 26.7753 16.6619C26.887 16.6798 27.0013 16.6735 27.1103 16.6434C28.6915 16.2143 30.3585 16.2146 31.9395 16.6442C32.0491 16.6743 32.164 16.6802 32.2762 16.6616C32.3884 16.643 32.4952 16.6003 32.5892 16.5365C33.156 16.1165 33.7933 15.8011 34.4709 15.6052C34.5748 16.0082 34.598 16.4277 34.5393 16.8398C34.511 17.0021 34.4667 17.1613 34.4071 17.315C34.3557 17.4492 34.3422 17.595 34.3681 17.7363C34.394 17.8777 34.4584 18.0092 34.5542 18.1164C34.6146 18.1844 34.6749 18.2577 34.7292 18.3265C35.2035 18.9194 35.4533 19.6607 35.4347 20.4198C35.4362 20.6229 35.4263 20.8259 35.4053 21.0279C35.2331 23.4184 34.0554 24.5201 31.3405 24.8295C31.1899 24.8466 31.0475 24.9072 30.9307 25.0038C30.8138 25.1004 30.7275 25.2288 30.6823 25.3735C30.6371 25.5182 30.6349 25.673 30.6761 25.8189C30.7172 25.9648 30.7998 26.0957 30.9139 26.1955C31.1084 26.3872 31.2362 26.6362 31.2787 26.906C31.3315 27.1154 31.3558 27.331 31.3509 27.547V29.3729C31.3432 29.8794 31.3432 30.2591 31.3432 30.4333C31.3432 30.6408 31.4256 30.8398 31.5723 30.9865C31.7191 31.1332 31.918 31.2156 32.1255 31.2156C32.333 31.2156 32.532 31.1332 32.6787 30.9865C32.8254 30.8398 32.9078 30.6408 32.9078 30.4333C32.9078 30.2637 32.9078 29.8917 32.9155 29.3851V27.547C32.9218 27.2011 32.8811 26.8559 32.7944 26.521C32.7696 26.411 32.7393 26.3024 32.7035 26.1955C33.8936 25.9978 34.9749 25.3842 35.755 24.4639C36.5351 23.5437 36.9633 22.3764 36.9635 21.17C36.9892 20.9208 37.0012 20.6703 36.9994 20.4198C37.0167 19.3392 36.6687 18.2844 36.0116 17.4265Z" fill="url(#paint5_linear)"/>
<defs>
<filter id="filter0_d" x="0" y="0" width="54" height="44" filterUnits="userSpaceOnUse" color-interpolation-filters="sRGB">
<feFlood flood-opacity="0" result="BackgroundImageFix"/>
<feColorMatrix in="SourceAlpha" type="matrix" values="0 0 0 0 0 0 0 0 0 0 0 0 0 0 0 0 0 0 127 0" result="hardAlpha"/>
<feMorphology radius="1" operator="dilate" in="SourceAlpha" result="effect1_dropShadow"/>
<feOffset dx="1"/>
<feGaussianBlur stdDeviation="4"/>
<feComposite in2="hardAlpha" operator="out"/>
<feColorMatrix type="matrix" values="0 0 0 0 0 0 0 0 0 0 0 0 0 0 0 0 0 0 0.2 0"/>
<feBlend mode="normal" in2="BackgroundImageFix" result="effect1_dropShadow"/>
<feBlend mode="normal" in="SourceGraphic" in2="effect1_dropShadow" result="shape"/>
</filter>
<linearGradient id="paint0_linear" x1="62" y1="9" x2="62" y2="35" gradientUnits="userSpaceOnUse">
<stop stop-color="white"/>
<stop offset="1" stop-color="#D3D3D3"/>
</linearGradient>
<linearGradient id="paint1_linear" x1="42.5" y1="40" x2="19.2997" y2="-1.96989" gradientUnits="userSpaceOnUse">
<stop stop-color="#A84729"/>
<stop offset="1" stop-color="#29009F"/>
</linearGradient>
<linearGradient id="paint2_linear" x1="26" y1="9" x2="26" y2="35" gradientUnits="userSpaceOnUse">
<stop stop-color="#212733"/>
<stop offset="1" stop-color="#181827"/>
</linearGradient>
<linearGradient id="paint3_linear" x1="10" y1="9" x2="10" y2="35" gradientUnits="userSpaceOnUse">
<stop stop-color="white"/>
<stop offset="1" stop-color="#D3D3D3"/>
</linearGradient>
<linearGradient id="paint4_linear" x1="79" y1="11" x2="79" y2="33" gradientUnits="userSpaceOnUse">
<stop/>
<stop offset="1" stop-opacity="0.81"/>
</linearGradient>
<linearGradient id="paint5_linear" x1="22" y1="13" x2="35.5" y2="33.5" gradientUnits="userSpaceOnUse">
<stop stop-color="#95AFCE"/>
<stop offset="1" stop-color="#1E3E63"/>
</linearGradient>
</defs>
</svg>
