<svg width="140" height="44" viewBox="0 0 140 44" fill="none" xmlns="http://www.w3.org/2000/svg">
<rect x="8" y="9" width="132" height="26" rx="4" fill="url(#paint0_linear)"/>
<g filter="url(#filter0_d)">
<rect x="8" y="9" width="36" height="26" rx="4" fill="url(#paint1_linear)"/>
<rect x="8" y="9" width="36" height="26" rx="4" fill="url(#paint2_linear)"/>
</g>
<rect x="8" y="9" width="4" height="26" rx="2" fill="url(#paint3_linear)"/>
<path d="M55.122 28V16.1H57.366V28H55.122ZM58.4824 28V19.568H60.5904V20.673H60.8964C61.0324 20.3783 61.2874 20.1007 61.6614 19.84C62.0354 19.568 62.6021 19.432 63.3614 19.432C64.0188 19.432 64.5911 19.585 65.0784 19.891C65.5771 20.1857 65.9624 20.5993 66.2344 21.132C66.5064 21.6533 66.6424 22.2653 66.6424 22.968V28H64.5004V23.138C64.5004 22.5033 64.3418 22.0273 64.0244 21.71C63.7184 21.3927 63.2764 21.234 62.6984 21.234C62.0411 21.234 61.5311 21.455 61.1684 21.897C60.8058 22.3277 60.6244 22.934 60.6244 23.716V28H58.4824ZM71.27 28.238C70.1707 28.238 69.2697 28 68.567 27.524C67.8643 27.048 67.4393 26.368 67.292 25.484L69.264 24.974C69.3433 25.3707 69.4737 25.6823 69.655 25.909C69.8477 26.1357 70.08 26.3 70.352 26.402C70.6353 26.4927 70.9413 26.538 71.27 26.538C71.7687 26.538 72.137 26.453 72.375 26.283C72.613 26.1017 72.732 25.8807 72.732 25.62C72.732 25.3593 72.6187 25.161 72.392 25.025C72.1653 24.8777 71.8027 24.7587 71.304 24.668L70.828 24.583C70.2387 24.4697 69.7003 24.3167 69.213 24.124C68.7257 23.92 68.3347 23.6423 68.04 23.291C67.7453 22.9397 67.598 22.4863 67.598 21.931C67.598 21.0923 67.904 20.452 68.516 20.01C69.128 19.5567 69.9327 19.33 70.93 19.33C71.8707 19.33 72.6527 19.5397 73.276 19.959C73.8993 20.3783 74.3073 20.928 74.5 21.608L72.511 22.22C72.4203 21.7893 72.2333 21.4833 71.95 21.302C71.678 21.1207 71.338 21.03 70.93 21.03C70.522 21.03 70.2103 21.1037 69.995 21.251C69.7797 21.387 69.672 21.5797 69.672 21.829C69.672 22.101 69.7853 22.305 70.012 22.441C70.2387 22.5657 70.5447 22.662 70.93 22.73L71.406 22.815C72.0407 22.9283 72.613 23.0813 73.123 23.274C73.6443 23.4553 74.0523 23.7217 74.347 24.073C74.653 24.413 74.806 24.8777 74.806 25.467C74.806 26.351 74.483 27.0367 73.837 27.524C73.2023 28 72.3467 28.238 71.27 28.238ZM78.557 28C78.0017 28 77.5484 27.83 77.197 27.49C76.857 27.1387 76.687 26.674 76.687 26.096V21.336H74.579V19.568H76.687V16.95H78.829V19.568H81.141V21.336H78.829V25.722C78.829 26.062 78.9877 26.232 79.305 26.232H80.937V28H78.557ZM84.508 28.238C83.9073 28.238 83.369 28.136 82.893 27.932C82.417 27.7167 82.0373 27.4107 81.754 27.014C81.482 26.606 81.346 26.113 81.346 25.535C81.346 24.957 81.482 24.4753 81.754 24.09C82.0373 23.6933 82.4226 23.3987 82.91 23.206C83.4086 23.002 83.9753 22.9 84.61 22.9H86.922V22.424C86.922 22.0273 86.7973 21.7043 86.548 21.455C86.2986 21.1943 85.902 21.064 85.358 21.064C84.8253 21.064 84.4286 21.1887 84.168 21.438C83.9073 21.676 83.7373 21.9877 83.658 22.373L81.686 21.71C81.822 21.2793 82.0373 20.8883 82.332 20.537C82.638 20.1743 83.0403 19.8853 83.539 19.67C84.049 19.4433 84.6666 19.33 85.392 19.33C86.5026 19.33 87.381 19.6077 88.027 20.163C88.673 20.7183 88.996 21.523 88.996 22.577V25.722C88.996 26.062 89.1546 26.232 89.472 26.232H90.152V28H88.724C88.3046 28 87.959 27.898 87.687 27.694C87.415 27.49 87.279 27.218 87.279 26.878V26.861H86.956C86.9106 26.997 86.8086 27.1783 86.65 27.405C86.4913 27.6203 86.242 27.813 85.902 27.983C85.562 28.153 85.0973 28.238 84.508 28.238ZM84.882 26.504C85.4826 26.504 85.97 26.3397 86.344 26.011C86.7293 25.671 86.922 25.2233 86.922 24.668V24.498H84.763C84.3663 24.498 84.0546 24.583 83.828 24.753C83.6013 24.923 83.488 25.161 83.488 25.467C83.488 25.773 83.607 26.0223 83.845 26.215C84.083 26.4077 84.4286 26.504 84.882 26.504ZM89.9541 23.818V23.546C89.9541 22.662 90.1297 21.9083 90.4811 21.285C90.8324 20.6503 91.2971 20.1687 91.8751 19.84C92.4644 19.5 93.1047 19.33 93.7961 19.33C94.5667 19.33 95.1504 19.466 95.5471 19.738C95.9437 20.01 96.2327 20.2933 96.4141 20.588H96.7201V19.568H98.8281V29.496C98.8281 30.074 98.6581 30.533 98.3181 30.873C97.9781 31.2243 97.5247 31.4 96.9581 31.4H91.3141V29.53H96.2101C96.5274 29.53 96.6861 29.36 96.6861 29.02V26.827H96.3801C96.2667 27.0083 96.1081 27.1953 95.9041 27.388C95.7001 27.5693 95.4281 27.7223 95.0881 27.847C94.7481 27.9717 94.3174 28.034 93.7961 28.034C93.1047 28.034 92.4644 27.8697 91.8751 27.541C91.2971 27.201 90.8324 26.7193 90.4811 26.096C90.1297 25.4613 89.9541 24.702 89.9541 23.818ZM94.4081 26.164C95.0654 26.164 95.6151 25.9543 96.0571 25.535C96.4991 25.1157 96.7201 24.5263 96.7201 23.767V23.597C96.7201 22.8263 96.4991 22.237 96.0571 21.829C95.6264 21.4097 95.0767 21.2 94.4081 21.2C93.7507 21.2 93.2011 21.4097 92.7591 21.829C92.3171 22.237 92.0961 22.8263 92.0961 23.597V23.767C92.0961 24.5263 92.3171 25.1157 92.7591 25.535C93.2011 25.9543 93.7507 26.164 94.4081 26.164ZM100.013 28V19.568H102.121V20.52H102.427C102.552 20.18 102.756 19.9307 103.039 19.772C103.334 19.6133 103.674 19.534 104.059 19.534H105.079V21.438H104.025C103.481 21.438 103.033 21.5853 102.682 21.88C102.331 22.1633 102.155 22.6053 102.155 23.206V28H100.013ZM107.982 28.238C107.381 28.238 106.843 28.136 106.367 27.932C105.891 27.7167 105.511 27.4107 105.228 27.014C104.956 26.606 104.82 26.113 104.82 25.535C104.82 24.957 104.956 24.4753 105.228 24.09C105.511 23.6933 105.897 23.3987 106.384 23.206C106.883 23.002 107.449 22.9 108.084 22.9H110.396V22.424C110.396 22.0273 110.271 21.7043 110.022 21.455C109.773 21.1943 109.376 21.064 108.832 21.064C108.299 21.064 107.903 21.1887 107.642 21.438C107.381 21.676 107.211 21.9877 107.132 22.373L105.16 21.71C105.296 21.2793 105.511 20.8883 105.806 20.537C106.112 20.1743 106.514 19.8853 107.013 19.67C107.523 19.4433 108.141 19.33 108.866 19.33C109.977 19.33 110.855 19.6077 111.501 20.163C112.147 20.7183 112.47 21.523 112.47 22.577V25.722C112.47 26.062 112.629 26.232 112.946 26.232H113.626V28H112.198C111.779 28 111.433 27.898 111.161 27.694C110.889 27.49 110.753 27.218 110.753 26.878V26.861H110.43C110.385 26.997 110.283 27.1783 110.124 27.405C109.965 27.6203 109.716 27.813 109.376 27.983C109.036 28.153 108.571 28.238 107.982 28.238ZM108.356 26.504C108.957 26.504 109.444 26.3397 109.818 26.011C110.203 25.671 110.396 25.2233 110.396 24.668V24.498H108.237C107.84 24.498 107.529 24.583 107.302 24.753C107.075 24.923 106.962 25.161 106.962 25.467C106.962 25.773 107.081 26.0223 107.319 26.215C107.557 26.4077 107.903 26.504 108.356 26.504ZM114.002 28V19.568H116.11V20.486H116.416C116.563 20.2027 116.807 19.959 117.147 19.755C117.487 19.5397 117.935 19.432 118.49 19.432C119.091 19.432 119.572 19.551 119.935 19.789C120.298 20.0157 120.575 20.316 120.768 20.69H121.074C121.267 20.3273 121.539 20.027 121.89 19.789C122.241 19.551 122.74 19.432 123.386 19.432C123.907 19.432 124.378 19.5453 124.797 19.772C125.228 19.9873 125.568 20.3217 125.817 20.775C126.078 21.217 126.208 21.778 126.208 22.458V28H124.066V22.611C124.066 22.1463 123.947 21.8007 123.709 21.574C123.471 21.336 123.137 21.217 122.706 21.217C122.219 21.217 121.839 21.3757 121.567 21.693C121.306 21.999 121.176 22.441 121.176 23.019V28H119.034V22.611C119.034 22.1463 118.915 21.8007 118.677 21.574C118.439 21.336 118.105 21.217 117.674 21.217C117.187 21.217 116.807 21.3757 116.535 21.693C116.274 21.999 116.144 22.441 116.144 23.019V28H114.002Z" fill="url(#paint4_linear)"/>
<path fill-rule="evenodd" clip-rule="evenodd" d="M35.1542 20.7684H33.7614C33.8629 21.1624 33.9228 21.574 33.9228 21.9996C33.9228 24.7189 31.7189 26.9228 29 26.9228C26.2813 26.9228 24.0772 24.7189 24.0772 21.9996C24.0772 21.574 24.1374 21.1624 24.2389 20.7684H22.8459V27.5381C22.8459 27.8775 23.1215 28.153 23.4619 28.153H34.5382C34.6191 28.153 34.6991 28.1372 34.7738 28.1063C34.8485 28.0755 34.9164 28.0302 34.9736 27.9731C35.0308 27.916 35.0762 27.8482 35.1072 27.7736C35.1382 27.6989 35.1542 27.6189 35.1542 27.5381V20.7684ZM35.1542 16.461C35.1542 16.3802 35.1382 16.3001 35.1073 16.2255C35.0763 16.1508 35.0309 16.0829 34.9737 16.0258C34.9165 15.9687 34.8486 15.9234 34.7739 15.8925C34.6992 15.8616 34.6191 15.8457 34.5382 15.8458H32.6925C32.5293 15.8458 32.3728 15.9106 32.2574 16.026C32.1419 16.1413 32.0771 16.2978 32.0771 16.461V18.3075C32.0771 18.3883 32.093 18.4683 32.1239 18.543C32.1548 18.6177 32.2002 18.6855 32.2573 18.7426C32.3145 18.7998 32.3823 18.8451 32.457 18.876C32.5317 18.9069 32.6117 18.9228 32.6925 18.9228H34.5382C34.6191 18.9229 34.6992 18.907 34.7739 18.8761C34.8486 18.8452 34.9165 18.7999 34.9737 18.7428C35.0309 18.6856 35.0763 18.6178 35.1073 18.5431C35.1382 18.4684 35.1542 18.3884 35.1542 18.3075V16.461ZM28.9999 18.9228C27.3004 18.9228 25.9229 20.3001 25.9229 21.9996C25.9229 23.6987 27.3004 25.0768 28.9999 25.0768C30.6993 25.0768 32.0771 23.6987 32.0771 21.9996C32.0771 20.3001 30.6993 18.9228 28.9999 18.9228V18.9228ZM35.1542 29.9997H22.8458C21.8265 29.9997 21 29.173 21 28.1528V15.8458C21 14.8263 21.8265 14 22.8458 14H35.1542C36.1737 14 37 14.8263 37 15.8458V28.1528C36.9999 29.173 36.1737 29.9997 35.1542 29.9997" fill="url(#paint5_linear)"/>
<defs>
<filter id="filter0_d" x="0" y="0" width="54" height="44" filterUnits="userSpaceOnUse" color-interpolation-filters="sRGB">
<feFlood flood-opacity="0" result="BackgroundImageFix"/>
<feColorMatrix in="SourceAlpha" type="matrix" values="0 0 0 0 0 0 0 0 0 0 0 0 0 0 0 0 0 0 127 0" result="hardAlpha"/>
<feMorphology radius="1" operator="dilate" in="SourceAlpha" result="effect1_dropShadow"/>
<feOffset dx="1"/>
<feGaussianBlur stdDeviation="4"/>
<feComposite in2="hardAlpha" operator="out"/>
<feColorMatrix type="matrix" values="0 0 0 0 0 0 0 0 0 0 0 0 0 0 0 0 0 0 0.2 0"/>
<feBlend mode="normal" in2="BackgroundImageFix" result="effect1_dropShadow"/>
<feBlend mode="normal" in="SourceGraphic" in2="effect1_dropShadow" result="shape"/>
</filter>
<linearGradient id="paint0_linear" x1="74" y1="9" x2="74" y2="35" gradientUnits="userSpaceOnUse">
<stop stop-color="white"/>
<stop offset="1" stop-color="#D3D3D3"/>
</linearGradient>
<linearGradient id="paint1_linear" x1="42.5" y1="40" x2="19.2997" y2="-1.96989" gradientUnits="userSpaceOnUse">
<stop stop-color="#A84729"/>
<stop offset="1" stop-color="#29009F"/>
</linearGradient>
<linearGradient id="paint2_linear" x1="26" y1="9" x2="26" y2="35" gradientUnits="userSpaceOnUse">
<stop stop-color="#664763"/>
<stop offset="1" stop-color="#21151C"/>
</linearGradient>
<linearGradient id="paint3_linear" x1="10" y1="9" x2="10" y2="35" gradientUnits="userSpaceOnUse">
<stop stop-color="white"/>
<stop offset="1" stop-color="#D3D3D3"/>
</linearGradient>
<linearGradient id="paint4_linear" x1="91" y1="11" x2="91" y2="33" gradientUnits="userSpaceOnUse">
<stop/>
<stop offset="1" stop-opacity="0.81"/>
</linearGradient>
<linearGradient id="paint5_linear" x1="26" y1="9" x2="34.5" y2="34" gradientUnits="userSpaceOnUse">
<stop stop-color="#FFD056"/>
<stop offset="0.631279" stop-color="#FF3E8F"/>
<stop offset="1" stop-color="#9F40FF"/>
</linearGradient>
</defs>
</svg>
