<svg width="127" height="44" viewBox="0 0 127 44" fill="none" xmlns="http://www.w3.org/2000/svg">
<rect x="8" y="9" width="119" height="26" rx="4" fill="url(#paint0_linear)"/>
<g filter="url(#filter0_d)">
<rect x="8" y="9" width="36" height="26" rx="4" fill="url(#paint1_linear)"/>
<rect x="8" y="9" width="36" height="26" rx="4" fill="url(#paint2_linear)"/>
</g>
<rect x="8" y="9" width="4" height="26" rx="2" fill="url(#paint3_linear)"/>
<path d="M55.122 28V16.1H57.366V25.96H62.806V28H55.122ZM63.2139 28V19.568H65.3559V28H63.2139ZM64.2849 18.582C63.8995 18.582 63.5709 18.4573 63.2989 18.208C63.0382 17.9587 62.9079 17.63 62.9079 17.222C62.9079 16.814 63.0382 16.4853 63.2989 16.236C63.5709 15.9867 63.8995 15.862 64.2849 15.862C64.6815 15.862 65.0102 15.9867 65.2709 16.236C65.5315 16.4853 65.6619 16.814 65.6619 17.222C65.6619 17.63 65.5315 17.9587 65.2709 18.208C65.0102 18.4573 64.6815 18.582 64.2849 18.582ZM66.5395 28V19.568H68.6475V20.673H68.9535C69.0895 20.3783 69.3445 20.1007 69.7185 19.84C70.0925 19.568 70.6592 19.432 71.4185 19.432C72.0758 19.432 72.6482 19.585 73.1355 19.891C73.6342 20.1857 74.0195 20.5993 74.2915 21.132C74.5635 21.6533 74.6995 22.2653 74.6995 22.968V28H72.5575V23.138C72.5575 22.5033 72.3988 22.0273 72.0815 21.71C71.7755 21.3927 71.3335 21.234 70.7555 21.234C70.0982 21.234 69.5882 21.455 69.2255 21.897C68.8628 22.3277 68.6815 22.934 68.6815 23.716V28H66.5395ZM75.8251 28V16.1H77.9671V22.679H78.2731L81.0611 19.568H83.8491L79.9561 23.648L83.9851 28H81.2311L78.2731 24.651H77.9671V28H75.8251ZM87.5581 28.238C86.7195 28.238 85.9771 28.0623 85.3311 27.711C84.6965 27.3483 84.1978 26.844 83.8351 26.198C83.4838 25.5407 83.3081 24.77 83.3081 23.886V23.682C83.3081 22.798 83.4838 22.033 83.8351 21.387C84.1865 20.7297 84.6795 20.2253 85.3141 19.874C85.9488 19.5113 86.6855 19.33 87.5241 19.33C88.3515 19.33 89.0711 19.517 89.6831 19.891C90.2951 20.2537 90.7711 20.7637 91.1111 21.421C91.4511 22.067 91.6211 22.8207 91.6211 23.682V24.413H85.4841C85.5068 24.991 85.7221 25.4613 86.1301 25.824C86.5381 26.1867 87.0368 26.368 87.6261 26.368C88.2268 26.368 88.6688 26.2377 88.9521 25.977C89.2355 25.7163 89.4508 25.4273 89.5981 25.11L91.3491 26.028C91.1905 26.3227 90.9581 26.6457 90.6521 26.997C90.3575 27.337 89.9608 27.6317 89.4621 27.881C88.9635 28.119 88.3288 28.238 87.5581 28.238ZM85.5011 22.815H89.4451C89.3998 22.3277 89.2015 21.9367 88.8501 21.642C88.5101 21.3473 88.0625 21.2 87.5071 21.2C86.9291 21.2 86.4701 21.3473 86.1301 21.642C85.7901 21.9367 85.5805 22.3277 85.5011 22.815ZM95.7377 28.238C95.069 28.238 94.44 28.0737 93.8507 27.745C93.2727 27.405 92.808 26.912 92.4567 26.266C92.1053 25.62 91.9297 24.838 91.9297 23.92V23.648C91.9297 22.73 92.1053 21.948 92.4567 21.302C92.808 20.656 93.2727 20.1687 93.8507 19.84C94.4287 19.5 95.0577 19.33 95.7377 19.33C96.2477 19.33 96.6727 19.3923 97.0127 19.517C97.364 19.6303 97.6473 19.7777 97.8627 19.959C98.078 20.1403 98.2423 20.333 98.3557 20.537H98.6617V16.1H100.804V28H98.6957V26.98H98.3897C98.197 27.2973 97.8967 27.5863 97.4887 27.847C97.092 28.1077 96.5083 28.238 95.7377 28.238ZM96.3837 26.368C97.041 26.368 97.5907 26.1583 98.0327 25.739C98.4747 25.3083 98.6957 24.685 98.6957 23.869V23.699C98.6957 22.883 98.4747 22.2653 98.0327 21.846C97.602 21.4153 97.0523 21.2 96.3837 21.2C95.7263 21.2 95.1767 21.4153 94.7347 21.846C94.2927 22.2653 94.0717 22.883 94.0717 23.699V23.869C94.0717 24.685 94.2927 25.3083 94.7347 25.739C95.1767 26.1583 95.7263 26.368 96.3837 26.368ZM101.988 28V19.568H104.13V28H101.988ZM103.059 18.582C102.674 18.582 102.345 18.4573 102.073 18.208C101.813 17.9587 101.682 17.63 101.682 17.222C101.682 16.814 101.813 16.4853 102.073 16.236C102.345 15.9867 102.674 15.862 103.059 15.862C103.456 15.862 103.785 15.9867 104.045 16.236C104.306 16.4853 104.436 16.814 104.436 17.222C104.436 17.63 104.306 17.9587 104.045 18.208C103.785 18.4573 103.456 18.582 103.059 18.582ZM105.314 28V19.568H107.422V20.673H107.728C107.864 20.3783 108.119 20.1007 108.493 19.84C108.867 19.568 109.434 19.432 110.193 19.432C110.85 19.432 111.423 19.585 111.91 19.891C112.409 20.1857 112.794 20.5993 113.066 21.132C113.338 21.6533 113.474 22.2653 113.474 22.968V28H111.332V23.138C111.332 22.5033 111.173 22.0273 110.856 21.71C110.55 21.3927 110.108 21.234 109.53 21.234C108.873 21.234 108.363 21.455 108 21.897C107.637 22.3277 107.456 22.934 107.456 23.716V28H105.314Z" fill="url(#paint4_linear)"/>
<path d="M32.8615 19.5633C32.1941 19.563 31.5371 19.7281 30.9491 20.0438C30.8954 19.9025 30.8 19.7808 30.6756 19.695C30.5511 19.6092 30.4035 19.5633 30.2524 19.5633H27.2705C27.1726 19.5633 27.0756 19.5825 26.9851 19.62C26.8946 19.6574 26.8124 19.7123 26.7432 19.7815C26.674 19.8508 26.6191 19.933 26.5816 20.0235C26.5442 20.1139 26.5249 20.2109 26.525 20.3088V29.2545C26.5249 29.3524 26.5442 29.4494 26.5816 29.5399C26.6191 29.6303 26.674 29.7125 26.7432 29.7818C26.8124 29.851 26.8946 29.9059 26.9851 29.9434C27.0756 29.9808 27.1726 30.0001 27.2705 30H30.2524C30.3503 30.0001 30.4472 29.9808 30.5377 29.9434C30.6282 29.9059 30.7104 29.851 30.7796 29.7818C30.8489 29.7125 30.9038 29.6303 30.9412 29.5399C30.9787 29.4494 30.9979 29.3524 30.9978 29.2545V25.1544C30.9978 24.9567 31.0764 24.7671 31.2162 24.6273C31.356 24.4875 31.5456 24.4089 31.7433 24.4089C31.941 24.4089 32.1307 24.4875 32.2705 24.6273C32.4103 24.7671 32.4888 24.9567 32.4888 25.1544V29.2545C32.4887 29.3524 32.508 29.4494 32.5454 29.5399C32.5829 29.6303 32.6378 29.7125 32.707 29.7818C32.7763 29.851 32.8585 29.9059 32.9489 29.9434C33.0394 29.9808 33.1364 30.0001 33.2343 30H36.2162C36.3141 30.0001 36.4111 29.9808 36.5015 29.9434C36.592 29.9059 36.6742 29.851 36.7434 29.7818C36.8127 29.7125 36.8676 29.6303 36.905 29.5399C36.9425 29.4494 36.9617 29.3524 36.9617 29.2545V23.6634C36.9603 22.5764 36.5279 21.5343 35.7593 20.7657C34.9906 19.9971 33.9485 19.5647 32.8615 19.5633V19.5633ZM35.4707 28.509H33.9798V25.1544C33.9798 24.5613 33.7441 23.9924 33.3247 23.573C32.9053 23.1536 32.3365 22.918 31.7433 22.918C31.1502 22.918 30.5813 23.1536 30.1619 23.573C29.7425 23.9924 29.5069 24.5613 29.5069 25.1544V28.509H28.0159V21.0543H29.5069V21.5784C29.507 21.7329 29.555 21.8835 29.6444 22.0095C29.7338 22.1355 29.86 22.2306 30.0058 22.2818C30.1515 22.3329 30.3096 22.3375 30.4581 22.295C30.6066 22.2525 30.7382 22.1649 30.8348 22.0444C31.1693 21.6195 31.6282 21.3097 32.1474 21.1582C32.6665 21.0067 33.22 21.0211 33.7306 21.1994C34.2411 21.3777 34.6832 21.711 34.9952 22.1528C35.3072 22.5945 35.4734 23.1227 35.4707 23.6634V28.509ZM25.034 19.5633H22.0521C21.9542 19.5633 21.8573 19.5825 21.7668 19.62C21.6763 19.6574 21.5941 19.7123 21.5249 19.7815C21.4556 19.8508 21.4007 19.933 21.3633 20.0235C21.3258 20.1139 21.3066 20.2109 21.3067 20.3088V29.2545C21.3066 29.3524 21.3258 29.4494 21.3633 29.5399C21.4007 29.6303 21.4556 29.7125 21.5249 29.7818C21.5941 29.851 21.6763 29.9059 21.7668 29.9434C21.8572 29.9808 21.9542 30.0001 22.0521 30H25.034C25.1319 30.0001 25.2289 29.9808 25.3194 29.9434C25.4099 29.9059 25.4921 29.851 25.5613 29.7818C25.6305 29.7125 25.6854 29.6303 25.7229 29.5399C25.7603 29.4494 25.7796 29.3524 25.7795 29.2545V20.3088C25.7796 20.2109 25.7603 20.1139 25.7229 20.0235C25.6854 19.933 25.6305 19.8508 25.5613 19.7815C25.4921 19.7123 25.4099 19.6574 25.3194 19.62C25.2289 19.5825 25.1319 19.5633 25.034 19.5633V19.5633ZM24.2886 28.509H22.7976V21.0543H24.2886V28.509ZM23.554 14.0043C23.2278 13.9848 22.9009 14.0318 22.5934 14.1426C22.2859 14.2533 22.0042 14.4254 21.7653 14.6485C21.5264 14.8715 21.3354 15.1408 21.2038 15.44C21.0723 15.7392 21.003 16.062 21.0001 16.3889C20.9972 16.7157 21.0609 17.0397 21.1871 17.3411C21.3134 17.6426 21.4997 17.9152 21.7346 18.1424C21.9696 18.3696 22.2483 18.5467 22.5538 18.6628C22.8593 18.7789 23.1852 18.8317 23.5118 18.8178H23.5329C23.86 18.8373 24.1876 18.7898 24.4958 18.6783C24.8039 18.5669 25.0861 18.3937 25.3251 18.1695C25.5641 17.9453 25.7548 17.6747 25.8857 17.3743C26.0165 17.0739 26.0848 16.7499 26.0862 16.4222C26.0876 16.0945 26.0223 15.77 25.894 15.4684C25.7658 15.1669 25.5774 14.8946 25.3404 14.6683C25.1034 14.442 24.8228 14.2664 24.5156 14.1523C24.2085 14.0381 23.8813 13.9877 23.554 14.0043H23.554ZM23.5329 17.3269H23.5118C23.3829 17.3426 23.2521 17.3305 23.1282 17.2914C23.0044 17.2524 22.8903 17.1873 22.7936 17.1006C22.697 17.0139 22.62 16.9075 22.5678 16.7886C22.5156 16.6696 22.4895 16.5409 22.4911 16.4111C22.4911 15.8549 22.9083 15.4953 23.554 15.4953C23.6842 15.4779 23.8167 15.4886 23.9424 15.5268C24.0681 15.5649 24.1842 15.6295 24.2829 15.7163C24.3815 15.8031 24.4604 15.91 24.5143 16.0299C24.5681 16.1497 24.5957 16.2797 24.595 16.4111C24.595 16.9673 24.1779 17.3269 23.5329 17.3269Z" fill="url(#paint5_linear)"/>
<defs>
<filter id="filter0_d" x="0" y="0" width="54" height="44" filterUnits="userSpaceOnUse" color-interpolation-filters="sRGB">
<feFlood flood-opacity="0" result="BackgroundImageFix"/>
<feColorMatrix in="SourceAlpha" type="matrix" values="0 0 0 0 0 0 0 0 0 0 0 0 0 0 0 0 0 0 127 0" result="hardAlpha"/>
<feMorphology radius="1" operator="dilate" in="SourceAlpha" result="effect1_dropShadow"/>
<feOffset dx="1"/>
<feGaussianBlur stdDeviation="4"/>
<feComposite in2="hardAlpha" operator="out"/>
<feColorMatrix type="matrix" values="0 0 0 0 0 0 0 0 0 0 0 0 0 0 0 0 0 0 0.2 0"/>
<feBlend mode="normal" in2="BackgroundImageFix" result="effect1_dropShadow"/>
<feBlend mode="normal" in="SourceGraphic" in2="effect1_dropShadow" result="shape"/>
</filter>
<linearGradient id="paint0_linear" x1="67.5" y1="9" x2="67.5" y2="35" gradientUnits="userSpaceOnUse">
<stop stop-color="white"/>
<stop offset="1" stop-color="#D3D3D3"/>
</linearGradient>
<linearGradient id="paint1_linear" x1="42.5" y1="40" x2="19.2997" y2="-1.96989" gradientUnits="userSpaceOnUse">
<stop stop-color="#A84729"/>
<stop offset="1" stop-color="#29009F"/>
</linearGradient>
<linearGradient id="paint2_linear" x1="26" y1="9" x2="26" y2="35" gradientUnits="userSpaceOnUse">
<stop stop-color="#34314A"/>
<stop offset="1" stop-color="#1C1529"/>
</linearGradient>
<linearGradient id="paint3_linear" x1="10" y1="9" x2="10" y2="35" gradientUnits="userSpaceOnUse">
<stop stop-color="white"/>
<stop offset="1" stop-color="#D3D3D3"/>
</linearGradient>
<linearGradient id="paint4_linear" x1="84.5" y1="11" x2="84.5" y2="33" gradientUnits="userSpaceOnUse">
<stop/>
<stop offset="1" stop-opacity="0.81"/>
</linearGradient>
<linearGradient id="paint5_linear" x1="21" y1="12.5" x2="39" y2="32" gradientUnits="userSpaceOnUse">
<stop stop-color="#9A98FF"/>
<stop offset="1" stop-color="#3E3BC0"/>
</linearGradient>
</defs>
</svg>
