<svg width="121" height="44" viewBox="0 0 121 44" fill="none" xmlns="http://www.w3.org/2000/svg">
<rect x="8" y="9" width="113" height="26" rx="4" fill="url(#paint0_linear)"/>
<g filter="url(#filter0_d)">
<rect x="8" y="9" width="36" height="26" rx="4" fill="url(#paint1_linear)"/>
<rect x="8" y="9" width="36" height="26" rx="4" fill="url(#paint2_linear)"/>
</g>
<rect x="8" y="9" width="4" height="26" rx="2" fill="url(#paint3_linear)"/>
<path d="M59.253 28.238C58.335 28.238 57.5247 28.0737 56.822 27.745C56.1193 27.4163 55.5697 26.946 55.173 26.334C54.7763 25.722 54.578 24.9853 54.578 24.124V23.648H56.788V24.124C56.788 24.838 57.009 25.3763 57.451 25.739C57.893 26.0903 58.4937 26.266 59.253 26.266C60.0237 26.266 60.596 26.113 60.97 25.807C61.3553 25.501 61.548 25.11 61.548 24.634C61.548 24.3053 61.4517 24.039 61.259 23.835C61.0777 23.631 60.8057 23.4667 60.443 23.342C60.0917 23.206 59.661 23.0813 59.151 22.968L58.76 22.883C57.944 22.7017 57.2413 22.475 56.652 22.203C56.074 21.9197 55.6263 21.5513 55.309 21.098C55.003 20.6447 54.85 20.0553 54.85 19.33C54.85 18.6047 55.02 17.987 55.36 17.477C55.7113 16.9557 56.1987 16.559 56.822 16.287C57.4567 16.0037 58.199 15.862 59.049 15.862C59.899 15.862 60.6527 16.0093 61.31 16.304C61.9787 16.5873 62.5 17.018 62.874 17.596C63.2593 18.1627 63.452 18.8767 63.452 19.738V20.248H61.242V19.738C61.242 19.2847 61.1513 18.922 60.97 18.65C60.8 18.3667 60.5507 18.1627 60.222 18.038C59.8933 17.902 59.5023 17.834 59.049 17.834C58.369 17.834 57.8647 17.9643 57.536 18.225C57.2187 18.4743 57.06 18.82 57.06 19.262C57.06 19.5567 57.1337 19.806 57.281 20.01C57.4397 20.214 57.672 20.384 57.978 20.52C58.284 20.656 58.675 20.775 59.151 20.877L59.542 20.962C60.392 21.1433 61.1287 21.3757 61.752 21.659C62.3867 21.9423 62.8797 22.3163 63.231 22.781C63.5823 23.2457 63.758 23.8407 63.758 24.566C63.758 25.2913 63.571 25.9317 63.197 26.487C62.8343 27.031 62.313 27.4617 61.633 27.779C60.9643 28.085 60.171 28.238 59.253 28.238ZM64.3096 31.4V19.568H66.4176V20.588H66.7236C66.9162 20.2593 67.2166 19.9703 67.6246 19.721C68.0326 19.4603 68.6162 19.33 69.3756 19.33C70.0556 19.33 70.6846 19.5 71.2626 19.84C71.8406 20.1687 72.3052 20.656 72.6566 21.302C73.0079 21.948 73.1836 22.73 73.1836 23.648V23.92C73.1836 24.838 73.0079 25.62 72.6566 26.266C72.3052 26.912 71.8406 27.405 71.2626 27.745C70.6846 28.0737 70.0556 28.238 69.3756 28.238C68.8656 28.238 68.4349 28.1757 68.0836 28.051C67.7436 27.9377 67.4659 27.7903 67.2506 27.609C67.0466 27.4163 66.8822 27.2237 66.7576 27.031H66.4516V31.4H64.3096ZM68.7296 26.368C69.3982 26.368 69.9479 26.1583 70.3786 25.739C70.8206 25.3083 71.0416 24.685 71.0416 23.869V23.699C71.0416 22.883 70.8206 22.2653 70.3786 21.846C69.9366 21.4153 69.3869 21.2 68.7296 21.2C68.0722 21.2 67.5226 21.4153 67.0806 21.846C66.6386 22.2653 66.4176 22.883 66.4176 23.699V23.869C66.4176 24.685 66.6386 25.3083 67.0806 25.739C67.5226 26.1583 68.0722 26.368 68.7296 26.368ZM77.9724 28.238C77.1337 28.238 76.3801 28.068 75.7114 27.728C75.0427 27.388 74.5157 26.895 74.1304 26.249C73.7451 25.603 73.5524 24.8267 73.5524 23.92V23.648C73.5524 22.7413 73.7451 21.965 74.1304 21.319C74.5157 20.673 75.0427 20.18 75.7114 19.84C76.3801 19.5 77.1337 19.33 77.9724 19.33C78.8111 19.33 79.5647 19.5 80.2334 19.84C80.9021 20.18 81.4291 20.673 81.8144 21.319C82.1997 21.965 82.3924 22.7413 82.3924 23.648V23.92C82.3924 24.8267 82.1997 25.603 81.8144 26.249C81.4291 26.895 80.9021 27.388 80.2334 27.728C79.5647 28.068 78.8111 28.238 77.9724 28.238ZM77.9724 26.334C78.6297 26.334 79.1737 26.1243 79.6044 25.705C80.0351 25.2743 80.2504 24.6623 80.2504 23.869V23.699C80.2504 22.9057 80.0351 22.2993 79.6044 21.88C79.1851 21.4493 78.6411 21.234 77.9724 21.234C77.3151 21.234 76.7711 21.4493 76.3404 21.88C75.9097 22.2993 75.6944 22.9057 75.6944 23.699V23.869C75.6944 24.6623 75.9097 25.2743 76.3404 25.705C76.7711 26.1243 77.3151 26.334 77.9724 26.334ZM86.1439 28C85.5886 28 85.1353 27.83 84.7839 27.49C84.4439 27.1387 84.2739 26.674 84.2739 26.096V21.336H82.1659V19.568H84.2739V16.95H86.4159V19.568H88.7279V21.336H86.4159V25.722C86.4159 26.062 86.5746 26.232 86.8919 26.232H88.5239V28H86.1439ZM89.4769 28V19.568H91.6189V28H89.4769ZM90.5479 18.582C90.1625 18.582 89.8339 18.4573 89.5619 18.208C89.3012 17.9587 89.1709 17.63 89.1709 17.222C89.1709 16.814 89.3012 16.4853 89.5619 16.236C89.8339 15.9867 90.1625 15.862 90.5479 15.862C90.9445 15.862 91.2732 15.9867 91.5339 16.236C91.7945 16.4853 91.9249 16.814 91.9249 17.222C91.9249 17.63 91.7945 17.9587 91.5339 18.208C91.2732 18.4573 90.9445 18.582 90.5479 18.582ZM94.1965 28V21.336H92.0545V19.568H94.1965V18.004C94.1965 17.426 94.3665 16.967 94.7065 16.627C95.0578 16.2757 95.5112 16.1 96.0665 16.1H98.2765V17.868H96.8145C96.4972 17.868 96.3385 18.038 96.3385 18.378V19.568H98.5485V21.336H96.3385V28H94.1965ZM99.9348 31.4V29.53H104.525C104.842 29.53 105.001 29.36 105.001 29.02V26.895H104.695C104.604 27.0877 104.462 27.2803 104.27 27.473C104.077 27.6657 103.816 27.8243 103.488 27.949C103.159 28.0737 102.74 28.136 102.23 28.136C101.572 28.136 100.994 27.9887 100.496 27.694C100.008 27.388 99.6288 26.9687 99.3568 26.436C99.0848 25.9033 98.9488 25.2913 98.9488 24.6V19.568H101.091V24.43C101.091 25.0647 101.244 25.5407 101.55 25.858C101.867 26.1753 102.315 26.334 102.893 26.334C103.55 26.334 104.06 26.1187 104.423 25.688C104.785 25.246 104.967 24.634 104.967 23.852V19.568H107.109V29.496C107.109 30.074 106.939 30.533 106.599 30.873C106.259 31.2243 105.805 31.4 105.239 31.4H99.9348Z" fill="url(#paint4_linear)"/>
<path d="M29.0051 14C27.1809 13.9977 25.4109 14.6196 23.9887 15.7626C22.5664 16.9056 21.5776 18.5008 21.1862 20.2836C20.7948 22.0663 21.0245 23.9294 21.837 25.5636C22.6496 27.1978 23.9962 28.5048 25.6533 29.2677C25.7272 29.3083 25.8086 29.3332 25.8925 29.341C25.9764 29.3488 26.061 29.3393 26.1411 29.313C26.2212 29.2867 26.295 29.2442 26.358 29.1882C26.4209 29.1322 26.4717 29.0638 26.5072 28.9873C26.5427 28.9109 26.5621 28.8279 26.5642 28.7436C26.5663 28.6593 26.551 28.5755 26.5194 28.4973C26.4878 28.4192 26.4404 28.3484 26.3803 28.2893C26.3202 28.2302 26.2486 28.1841 26.1699 28.1538C24.6537 27.4586 23.4476 26.2273 22.7832 24.6965C22.1188 23.1657 22.043 21.4433 22.5702 19.86C23.0975 18.2767 24.1908 16.9441 25.64 16.1181C27.0893 15.292 28.7924 15.0309 30.4223 15.3846C32.0523 15.7384 33.4942 16.6823 34.4711 18.0349C35.4481 19.3875 35.8913 21.0536 35.7155 22.7133C35.5398 24.3729 34.7576 25.9091 33.519 27.0268C32.2805 28.1446 30.6729 28.7651 29.0051 28.7692C28.842 28.7692 28.6855 28.8341 28.5702 28.9495C28.4549 29.0649 28.3901 29.2214 28.3901 29.3846C28.3901 29.5478 28.4549 29.7044 28.5702 29.8198C28.6855 29.9352 28.842 30 29.0051 30C31.1254 30 33.159 29.1571 34.6583 27.6569C36.1577 26.1566 37 24.1217 37 22C37 19.8783 36.1577 17.8434 34.6583 16.3432C33.159 14.8429 31.1254 14 29.0051 14Z" fill="url(#paint5_linear)"/>
<path d="M32.8928 21.2178C32.9745 21.2641 33.0668 21.2886 33.1608 21.2889C33.2814 21.2885 33.3986 21.2483 33.494 21.1744C33.5894 21.1005 33.6577 20.9972 33.6883 20.8805C33.7188 20.7638 33.71 20.6403 33.6631 20.5291C33.6161 20.418 33.5338 20.3254 33.4288 20.266C31.2408 19.0243 28.3745 18.7125 24.9174 19.3196C24.8466 19.3322 24.779 19.3585 24.7184 19.3972C24.6578 19.4359 24.6055 19.4862 24.5643 19.5451C24.5232 19.604 24.4941 19.6705 24.4786 19.7407C24.4632 19.8109 24.4617 19.8834 24.4743 19.9542C24.4868 20.0249 24.5132 20.0925 24.5519 20.1531C24.5906 20.2137 24.6408 20.2661 24.6997 20.3072C24.7587 20.3483 24.8251 20.3775 24.8953 20.3929C24.9655 20.4084 25.0381 20.4098 25.1088 20.3972C28.3088 19.8119 30.9235 20.1073 32.8928 21.2178ZM25.541 22.547C28.2104 21.9562 30.3875 22.2407 32.023 23.3894C32.1154 23.4562 32.2263 23.4926 32.3403 23.4933C32.4285 23.4932 32.5153 23.4717 32.5934 23.4307C32.6715 23.3898 32.7386 23.3306 32.7888 23.2581C32.8719 23.1397 32.9047 22.9933 32.8801 22.8508C32.8555 22.7084 32.7755 22.5814 32.6575 22.4978C30.7594 21.1576 28.2815 20.8184 25.3057 21.4749C25.1607 21.506 25.0339 21.5936 24.9534 21.7182C24.8729 21.8429 24.8452 21.9944 24.8763 22.1395C24.9075 22.2845 24.9951 22.4113 25.1197 22.4918C25.2444 22.5723 25.3959 22.6001 25.541 22.5689V22.547ZM26.0114 24.6201C28.09 24.199 29.7803 24.4013 31.0439 25.2164C31.1319 25.2733 31.2344 25.3036 31.3392 25.3039C31.4572 25.3036 31.5719 25.2652 31.6662 25.1944C31.7606 25.1235 31.8295 25.0241 31.8627 24.9109C31.8959 24.7978 31.8917 24.6769 31.8506 24.5663C31.8095 24.4557 31.7337 24.3614 31.6346 24.2974C30.103 23.3183 28.1611 23.094 25.7981 23.548C25.653 23.5763 25.5251 23.6611 25.4425 23.7837C25.3599 23.9062 25.3294 24.0566 25.3577 24.2017C25.386 24.3468 25.4708 24.4747 25.5934 24.5572C25.7159 24.6398 25.8663 24.6703 26.0114 24.642V24.6201Z" fill="url(#paint6_linear)"/>
<path d="M29.0051 14C27.1809 13.9977 25.4109 14.6196 23.9887 15.7626C22.5664 16.9056 21.5776 18.5008 21.1862 20.2836C20.7948 22.0663 21.0245 23.9294 21.837 25.5636C22.6496 27.1978 23.9962 28.5048 25.6533 29.2677C25.7272 29.3083 25.8086 29.3332 25.8925 29.341C25.9764 29.3488 26.061 29.3393 26.1411 29.313C26.2212 29.2867 26.295 29.2442 26.358 29.1882C26.4209 29.1322 26.4717 29.0638 26.5072 28.9873C26.5427 28.9109 26.5621 28.8279 26.5642 28.7436C26.5663 28.6593 26.551 28.5755 26.5194 28.4973C26.4878 28.4192 26.4404 28.3484 26.3803 28.2893C26.3202 28.2302 26.2486 28.1841 26.1699 28.1538C24.6537 27.4586 23.4476 26.2273 22.7832 24.6965C22.1188 23.1657 22.043 21.4433 22.5702 19.86C23.0975 18.2767 24.1908 16.9441 25.64 16.1181C27.0893 15.292 28.7924 15.0309 30.4223 15.3846C32.0523 15.7384 33.4942 16.6823 34.4711 18.0349C35.4481 19.3875 35.8913 21.0536 35.7155 22.7133C35.5398 24.3729 34.7576 25.9091 33.519 27.0268C32.2805 28.1446 30.6729 28.7651 29.0051 28.7692C28.842 28.7692 28.6855 28.8341 28.5702 28.9495C28.4549 29.0649 28.3901 29.2214 28.3901 29.3846C28.3901 29.5478 28.4549 29.7044 28.5702 29.8198C28.6855 29.9352 28.842 30 29.0051 30C31.1254 30 33.159 29.1571 34.6583 27.6569C36.1577 26.1566 37 24.1217 37 22C37 19.8783 36.1577 17.8434 34.6583 16.3432C33.159 14.8429 31.1254 14 29.0051 14Z" stroke="url(#paint7_linear)" stroke-width="0.5"/>
<path d="M32.8928 21.2178C32.9745 21.2641 33.0668 21.2886 33.1608 21.2889C33.2814 21.2885 33.3986 21.2483 33.494 21.1744C33.5894 21.1005 33.6577 20.9972 33.6883 20.8805C33.7188 20.7638 33.71 20.6403 33.6631 20.5291C33.6161 20.418 33.5338 20.3254 33.4288 20.266C31.2408 19.0243 28.3745 18.7125 24.9174 19.3196C24.8466 19.3322 24.779 19.3585 24.7184 19.3972C24.6578 19.4359 24.6055 19.4862 24.5643 19.5451C24.5232 19.604 24.4941 19.6705 24.4786 19.7407C24.4632 19.8109 24.4617 19.8834 24.4743 19.9542C24.4868 20.0249 24.5132 20.0925 24.5519 20.1531C24.5906 20.2137 24.6408 20.2661 24.6997 20.3072C24.7587 20.3483 24.8251 20.3775 24.8953 20.3929C24.9655 20.4084 25.0381 20.4098 25.1088 20.3972C28.3088 19.8119 30.9235 20.1073 32.8928 21.2178ZM25.541 22.547C28.2104 21.9562 30.3875 22.2407 32.023 23.3894C32.1154 23.4562 32.2263 23.4926 32.3403 23.4933C32.4285 23.4932 32.5153 23.4717 32.5934 23.4307C32.6715 23.3898 32.7386 23.3306 32.7888 23.2581C32.8719 23.1397 32.9047 22.9933 32.8801 22.8508C32.8555 22.7084 32.7755 22.5814 32.6575 22.4978C30.7594 21.1576 28.2815 20.8184 25.3057 21.4749C25.1607 21.506 25.0339 21.5936 24.9534 21.7182C24.8729 21.8429 24.8452 21.9944 24.8763 22.1395C24.9075 22.2845 24.9951 22.4113 25.1197 22.4918C25.2444 22.5723 25.3959 22.6001 25.541 22.5689V22.547ZM26.0114 24.6201C28.09 24.199 29.7803 24.4013 31.0439 25.2164C31.1319 25.2733 31.2344 25.3036 31.3392 25.3039C31.4572 25.3036 31.5719 25.2652 31.6662 25.1944C31.7606 25.1235 31.8295 25.0241 31.8627 24.9109C31.8959 24.7978 31.8917 24.6769 31.8506 24.5663C31.8095 24.4557 31.7337 24.3614 31.6346 24.2974C30.103 23.3183 28.1611 23.094 25.7981 23.548C25.653 23.5763 25.5251 23.6611 25.4425 23.7837C25.3599 23.9062 25.3294 24.0566 25.3577 24.2017C25.386 24.3468 25.4708 24.4747 25.5934 24.5572C25.7159 24.6398 25.8663 24.6703 26.0114 24.642V24.6201Z" stroke="url(#paint8_linear)" stroke-width="0.5"/>
<defs>
<filter id="filter0_d" x="0" y="0" width="54" height="44" filterUnits="userSpaceOnUse" color-interpolation-filters="sRGB">
<feFlood flood-opacity="0" result="BackgroundImageFix"/>
<feColorMatrix in="SourceAlpha" type="matrix" values="0 0 0 0 0 0 0 0 0 0 0 0 0 0 0 0 0 0 127 0" result="hardAlpha"/>
<feMorphology radius="1" operator="dilate" in="SourceAlpha" result="effect1_dropShadow"/>
<feOffset dx="1"/>
<feGaussianBlur stdDeviation="4"/>
<feComposite in2="hardAlpha" operator="out"/>
<feColorMatrix type="matrix" values="0 0 0 0 0 0 0 0 0 0 0 0 0 0 0 0 0 0 0.2 0"/>
<feBlend mode="normal" in2="BackgroundImageFix" result="effect1_dropShadow"/>
<feBlend mode="normal" in="SourceGraphic" in2="effect1_dropShadow" result="shape"/>
</filter>
<linearGradient id="paint0_linear" x1="64.5" y1="9" x2="64.5" y2="35" gradientUnits="userSpaceOnUse">
<stop stop-color="white"/>
<stop offset="1" stop-color="#D3D3D3"/>
</linearGradient>
<linearGradient id="paint1_linear" x1="42.5" y1="40" x2="19.2997" y2="-1.96989" gradientUnits="userSpaceOnUse">
<stop stop-color="#A84729"/>
<stop offset="1" stop-color="#29009F"/>
</linearGradient>
<linearGradient id="paint2_linear" x1="26" y1="9" x2="26" y2="35" gradientUnits="userSpaceOnUse">
<stop stop-color="#244130"/>
<stop offset="1" stop-color="#122218"/>
</linearGradient>
<linearGradient id="paint3_linear" x1="10" y1="9" x2="10" y2="35" gradientUnits="userSpaceOnUse">
<stop stop-color="white"/>
<stop offset="1" stop-color="#D3D3D3"/>
</linearGradient>
<linearGradient id="paint4_linear" x1="81.5" y1="11" x2="81.5" y2="33" gradientUnits="userSpaceOnUse">
<stop/>
<stop offset="1" stop-opacity="0.81"/>
</linearGradient>
<linearGradient id="paint5_linear" x1="23.5" y1="14" x2="37" y2="32" gradientUnits="userSpaceOnUse">
<stop stop-color="#58FF73"/>
<stop offset="1" stop-color="#037531"/>
</linearGradient>
<linearGradient id="paint6_linear" x1="23.5" y1="14" x2="37" y2="32" gradientUnits="userSpaceOnUse">
<stop stop-color="#58FF73"/>
<stop offset="1" stop-color="#037531"/>
</linearGradient>
<linearGradient id="paint7_linear" x1="23.5" y1="14" x2="37" y2="32" gradientUnits="userSpaceOnUse">
<stop stop-color="#58FF73"/>
<stop offset="1" stop-color="#037531"/>
</linearGradient>
<linearGradient id="paint8_linear" x1="23.5" y1="14" x2="37" y2="32" gradientUnits="userSpaceOnUse">
<stop stop-color="#58FF73"/>
<stop offset="1" stop-color="#037531"/>
</linearGradient>
</defs>
</svg>
