<svg width="117" height="44" viewBox="0 0 117 44" fill="none" xmlns="http://www.w3.org/2000/svg">
<rect x="8" y="9" width="109" height="26" rx="4" fill="url(#paint0_linear)"/>
<g filter="url(#filter0_d)">
<rect x="8" y="9" width="36" height="26" rx="4" fill="url(#paint1_linear)"/>
<rect x="8" y="9" width="36" height="26" rx="4" fill="url(#paint2_linear)"/>
</g>
<rect x="8" y="9" width="4" height="26" rx="2" fill="url(#paint3_linear)"/>
<path d="M57.876 28V18.14H54.408V16.1H63.588V18.14H60.12V28H57.876ZM63.512 28L62.322 19.568H64.447L65.195 26.555H65.501L66.589 19.568H70.023L71.111 26.555H71.417L72.165 19.568H74.29L73.1 28H69.547L68.459 21.013H68.153L67.065 28H63.512ZM74.9731 28V19.568H77.1151V28H74.9731ZM76.0441 18.582C75.6588 18.582 75.3301 18.4573 75.0581 18.208C74.7974 17.9587 74.6671 17.63 74.6671 17.222C74.6671 16.814 74.7974 16.4853 75.0581 16.236C75.3301 15.9867 75.6588 15.862 76.0441 15.862C76.4408 15.862 76.7694 15.9867 77.0301 16.236C77.2908 16.4853 77.4211 16.814 77.4211 17.222C77.4211 17.63 77.2908 17.9587 77.0301 18.208C76.7694 18.4573 76.4408 18.582 76.0441 18.582ZM81.5287 28C80.9734 28 80.52 27.83 80.1687 27.49C79.8287 27.1387 79.6587 26.674 79.6587 26.096V21.336H77.5507V19.568H79.6587V16.95H81.8007V19.568H83.6027V21.336H81.8007V25.722C81.8007 26.062 81.9594 26.232 82.2767 26.232H83.9087V28H81.5287ZM87.0707 28C86.5154 28 86.062 27.83 85.7107 27.49C85.3707 27.1387 85.2007 26.674 85.2007 26.096V21.336H83.6027V19.568H85.2007V16.95H87.3427V19.568H89.6547V21.336H87.3427V25.722C87.3427 26.062 87.5014 26.232 87.8187 26.232H89.4507V28H87.0707ZM94.2486 28.238C93.4099 28.238 92.6676 28.0623 92.0216 27.711C91.3869 27.3483 90.8882 26.844 90.5256 26.198C90.1742 25.5407 89.9986 24.77 89.9986 23.886V23.682C89.9986 22.798 90.1742 22.033 90.5256 21.387C90.8769 20.7297 91.3699 20.2253 92.0046 19.874C92.6392 19.5113 93.3759 19.33 94.2146 19.33C95.0419 19.33 95.7616 19.517 96.3736 19.891C96.9856 20.2537 97.4616 20.7637 97.8016 21.421C98.1416 22.067 98.3116 22.8207 98.3116 23.682V24.413H92.1746C92.1972 24.991 92.4126 25.4613 92.8206 25.824C93.2286 26.1867 93.7272 26.368 94.3166 26.368C94.9172 26.368 95.3592 26.2377 95.6426 25.977C95.9259 25.7163 96.1412 25.4273 96.2886 25.11L98.0396 26.028C97.8809 26.3227 97.6486 26.6457 97.3426 26.997C97.0479 27.337 96.6512 27.6317 96.1526 27.881C95.6539 28.119 95.0192 28.238 94.2486 28.238ZM92.1916 22.815H96.1356C96.0902 22.3277 95.8919 21.9367 95.5406 21.642C95.2006 21.3473 94.7529 21.2 94.1976 21.2C93.6196 21.2 93.1606 21.3473 92.8206 21.642C92.4806 21.9367 92.2709 22.3277 92.1916 22.815ZM99.0281 28V19.568H101.136V20.52H101.442C101.567 20.18 101.771 19.9307 102.054 19.772C102.349 19.6133 102.689 19.534 103.074 19.534H104.094V21.438H103.04C102.496 21.438 102.048 21.5853 101.697 21.88C101.346 22.1633 101.17 22.6053 101.17 23.206V28H99.0281Z" fill="url(#paint4_linear)"/>
<path d="M36.9948 16.0485C36.9949 15.907 36.9588 15.768 36.8903 15.6456C36.8217 15.5233 36.7231 15.4219 36.6045 15.3519C36.4859 15.282 36.3515 15.2458 36.2151 15.2472C36.0787 15.2486 35.945 15.2875 35.8278 15.3599C35.3756 15.6391 34.8889 15.8529 34.3809 15.9953C33.6555 15.3497 32.7304 14.9964 31.7746 15C30.726 15.0013 29.7189 15.4252 28.966 16.1822C28.2131 16.9392 27.7732 17.9701 27.7394 19.0572C25.6722 18.7153 23.7987 17.5961 22.476 15.9132C22.3963 15.8129 22.2946 15.7339 22.1793 15.683C22.064 15.6321 21.9386 15.6106 21.8137 15.6205C21.6888 15.6312 21.5683 15.6732 21.4627 15.743C21.357 15.8128 21.2693 15.9083 21.2072 16.0211C20.8885 16.5979 20.7055 17.2445 20.673 17.9083C20.6405 18.5722 20.7594 19.2347 21.0201 19.842L21.0186 19.8435C20.9014 19.9184 20.8047 20.0231 20.7378 20.1478C20.6708 20.2725 20.6358 20.4129 20.6361 20.5556C20.6347 20.6733 20.6415 20.791 20.6565 20.9077C20.7354 21.9159 21.1661 22.8596 21.868 23.5619C21.8204 23.656 21.7913 23.759 21.7825 23.8648C21.7737 23.9707 21.7853 24.0773 21.8167 24.1785C22.1227 25.1673 22.7734 26.0022 23.6415 26.5196C22.7596 26.8734 21.8072 26.9968 20.8684 26.8788C20.6947 26.8562 20.5187 26.8955 20.3693 26.9903C20.2199 27.0851 20.106 27.2297 20.0463 27.4004C19.9866 27.5712 19.9846 27.7579 20.0406 27.93C20.0967 28.1021 20.2074 28.2493 20.3547 28.3475C21.9693 29.4261 23.8492 29.9996 25.7697 29.9994C27.9475 30.0248 30.0724 29.3029 31.8138 27.9461C33.5552 26.5893 34.8154 24.6735 35.3985 22.4969C35.6713 21.5487 35.8105 20.5646 35.812 19.5752C35.812 19.5227 35.812 19.4687 35.8112 19.4148C36.2145 18.9636 36.527 18.4335 36.7302 17.8554C36.9335 17.2774 37.0234 16.6631 36.9948 16.0485ZM34.4405 18.6221C34.3129 18.7786 34.2483 18.9801 34.2602 19.1847C34.2677 19.3169 34.267 19.4499 34.267 19.5752C34.2654 20.4113 34.1472 21.2428 33.9162 22.0439C33.44 23.8959 32.3783 25.5286 30.9013 26.6804C29.4242 27.8323 27.6172 28.4367 25.7697 28.3968C25.106 28.397 24.4447 28.3162 23.7992 28.1558C24.6223 27.8807 25.3918 27.4566 26.0722 26.9031C26.1975 26.8007 26.2892 26.6607 26.3347 26.5021C26.3803 26.3436 26.3774 26.1743 26.3265 26.0175C26.2756 25.8607 26.1791 25.7241 26.0504 25.6264C25.9217 25.5287 25.7669 25.4748 25.6075 25.4719C24.9654 25.4616 24.3523 25.1931 23.8973 24.7231C24.0127 24.7004 24.1274 24.6722 24.2413 24.6386C24.4081 24.5893 24.5542 24.4832 24.6558 24.3374C24.7575 24.1916 24.8089 24.0145 24.8018 23.8347C24.7946 23.6549 24.7294 23.4829 24.6165 23.3462C24.5036 23.2096 24.3496 23.1163 24.1794 23.0815C23.8067 23.0051 23.456 22.8406 23.1546 22.6008C22.8531 22.361 22.6091 22.0524 22.4413 21.6988C22.5809 21.7186 22.7214 21.7308 22.8623 21.7356C23.0296 21.7382 23.1934 21.6856 23.3299 21.5853C23.4665 21.485 23.5687 21.3422 23.6219 21.1777C23.6729 21.0116 23.6703 20.8329 23.6145 20.6685C23.5586 20.5041 23.4527 20.3631 23.3126 20.2669C22.9729 20.0321 22.6945 19.7135 22.5026 19.3398C22.3106 18.966 22.211 18.5487 22.2128 18.1252C22.2128 18.072 22.2143 18.0188 22.2173 17.9664C23.9486 19.6412 26.1943 20.6285 28.5586 20.7544C28.678 20.7592 28.7968 20.7359 28.9062 20.6862C29.0156 20.6364 29.1126 20.5615 29.19 20.4672C29.2666 20.3719 29.3209 20.2595 29.3485 20.1388C29.3761 20.0181 29.3763 19.8924 29.3492 19.7716C29.305 19.5804 29.2824 19.3845 29.282 19.1878C29.2827 18.5024 29.5456 17.8452 30.0128 17.3605C30.4801 16.8759 31.1137 16.6032 31.7745 16.6025C32.1145 16.6016 32.451 16.6738 32.7628 16.8145C33.0745 16.9552 33.3547 17.1615 33.5858 17.4202C33.6749 17.5196 33.787 17.5938 33.9115 17.6355C34.036 17.6773 34.1688 17.6854 34.2971 17.6589C34.6145 17.5948 34.9272 17.5086 35.2333 17.4007C35.0245 17.8438 34.7577 18.2548 34.4405 18.6221Z" fill="url(#paint5_linear)"/>
<defs>
<filter id="filter0_d" x="0" y="0" width="54" height="44" filterUnits="userSpaceOnUse" color-interpolation-filters="sRGB">
<feFlood flood-opacity="0" result="BackgroundImageFix"/>
<feColorMatrix in="SourceAlpha" type="matrix" values="0 0 0 0 0 0 0 0 0 0 0 0 0 0 0 0 0 0 127 0" result="hardAlpha"/>
<feMorphology radius="1" operator="dilate" in="SourceAlpha" result="effect1_dropShadow"/>
<feOffset dx="1"/>
<feGaussianBlur stdDeviation="4"/>
<feComposite in2="hardAlpha" operator="out"/>
<feColorMatrix type="matrix" values="0 0 0 0 0 0 0 0 0 0 0 0 0 0 0 0 0 0 0.2 0"/>
<feBlend mode="normal" in2="BackgroundImageFix" result="effect1_dropShadow"/>
<feBlend mode="normal" in="SourceGraphic" in2="effect1_dropShadow" result="shape"/>
</filter>
<linearGradient id="paint0_linear" x1="62.5" y1="9" x2="62.5" y2="35" gradientUnits="userSpaceOnUse">
<stop stop-color="white"/>
<stop offset="1" stop-color="#D3D3D3"/>
</linearGradient>
<linearGradient id="paint1_linear" x1="41.4286" y1="35" x2="21.6579" y2="-4.08737" gradientUnits="userSpaceOnUse">
<stop stop-color="#318DC0"/>
<stop offset="0.713542" stop-color="#203DA2"/>
</linearGradient>
<linearGradient id="paint2_linear" x1="26" y1="9" x2="26" y2="35" gradientUnits="userSpaceOnUse">
<stop stop-color="#464A5F"/>
<stop offset="1" stop-color="#1F2236"/>
</linearGradient>
<linearGradient id="paint3_linear" x1="10" y1="9" x2="10" y2="35" gradientUnits="userSpaceOnUse">
<stop stop-color="white"/>
<stop offset="1" stop-color="#D3D3D3"/>
</linearGradient>
<linearGradient id="paint4_linear" x1="79.5" y1="11" x2="79.5" y2="33" gradientUnits="userSpaceOnUse">
<stop/>
<stop offset="1" stop-opacity="0.81"/>
</linearGradient>
<linearGradient id="paint5_linear" x1="21.7" y1="13.8571" x2="33.6258" y2="28.9003" gradientUnits="userSpaceOnUse">
<stop stop-color="#CDF3FF"/>
<stop offset="1" stop-color="#00A3FF"/>
</linearGradient>
</defs>
</svg>
