<svg width="126" height="44" viewBox="0 0 126 44" fill="none" xmlns="http://www.w3.org/2000/svg">
<rect x="8" y="9" width="118" height="26" rx="4" fill="url(#paint0_linear)"/>
<g filter="url(#filter0_d)">
<rect x="8" y="9" width="36" height="26" rx="4" fill="url(#paint1_linear)"/>
<rect x="8" y="9" width="36" height="26" rx="4" fill="url(#paint2_linear)"/>
</g>
<rect x="8" y="9" width="4" height="26" rx="2" fill="url(#paint3_linear)"/>
<path d="M56.074 28L54.51 16.1H56.737L57.893 26.436H58.199L59.695 16.1H63.571L65.067 26.436H65.373L66.529 16.1H68.756L67.192 28H63.316L61.786 17.426H61.48L59.95 28H56.074ZM73.0158 28.238C72.1772 28.238 71.4348 28.0623 70.7888 27.711C70.1542 27.3483 69.6555 26.844 69.2928 26.198C68.9415 25.5407 68.7658 24.77 68.7658 23.886V23.682C68.7658 22.798 68.9415 22.033 69.2928 21.387C69.6442 20.7297 70.1372 20.2253 70.7718 19.874C71.4065 19.5113 72.1432 19.33 72.9818 19.33C73.8092 19.33 74.5288 19.517 75.1408 19.891C75.7528 20.2537 76.2288 20.7637 76.5688 21.421C76.9088 22.067 77.0788 22.8207 77.0788 23.682V24.413H70.9418C70.9645 24.991 71.1798 25.4613 71.5878 25.824C71.9958 26.1867 72.4945 26.368 73.0838 26.368C73.6845 26.368 74.1265 26.2377 74.4098 25.977C74.6932 25.7163 74.9085 25.4273 75.0558 25.11L76.8068 26.028C76.6482 26.3227 76.4158 26.6457 76.1098 26.997C75.8152 27.337 75.4185 27.6317 74.9198 27.881C74.4212 28.119 73.7865 28.238 73.0158 28.238ZM70.9588 22.815H74.9028C74.8575 22.3277 74.6592 21.9367 74.3078 21.642C73.9678 21.3473 73.5202 21.2 72.9648 21.2C72.3868 21.2 71.9278 21.3473 71.5878 21.642C71.2478 21.9367 71.0382 22.3277 70.9588 22.815ZM82.8614 28.238C82.102 28.238 81.5184 28.1077 81.1104 27.847C80.7024 27.5863 80.402 27.2973 80.2094 26.98H79.9034V28H77.7954V16.1H79.9374V20.537H80.2434C80.368 20.333 80.5324 20.1403 80.7364 19.959C80.9517 19.7777 81.2294 19.6303 81.5694 19.517C81.9207 19.3923 82.3514 19.33 82.8614 19.33C83.5414 19.33 84.1704 19.5 84.7484 19.84C85.3264 20.1687 85.791 20.656 86.1424 21.302C86.4937 21.948 86.6694 22.73 86.6694 23.648V23.92C86.6694 24.838 86.4937 25.62 86.1424 26.266C85.791 26.912 85.3264 27.405 84.7484 27.745C84.1704 28.0737 83.5414 28.238 82.8614 28.238ZM82.2154 26.368C82.8727 26.368 83.4224 26.1583 83.8644 25.739C84.3064 25.3083 84.5274 24.685 84.5274 23.869V23.699C84.5274 22.883 84.3064 22.2653 83.8644 21.846C83.4337 21.4153 82.884 21.2 82.2154 21.2C81.558 21.2 81.0084 21.4153 80.5664 21.846C80.1244 22.2653 79.9034 22.883 79.9034 23.699V23.869C79.9034 24.685 80.1244 25.3083 80.5664 25.739C81.0084 26.1583 81.558 26.368 82.2154 26.368ZM90.9482 28.238C89.8488 28.238 88.9478 28 88.2452 27.524C87.5425 27.048 87.1175 26.368 86.9702 25.484L88.9422 24.974C89.0215 25.3707 89.1518 25.6823 89.3332 25.909C89.5258 26.1357 89.7582 26.3 90.0302 26.402C90.3135 26.4927 90.6195 26.538 90.9482 26.538C91.4468 26.538 91.8152 26.453 92.0532 26.283C92.2912 26.1017 92.4102 25.8807 92.4102 25.62C92.4102 25.3593 92.2968 25.161 92.0702 25.025C91.8435 24.8777 91.4808 24.7587 90.9822 24.668L90.5062 24.583C89.9168 24.4697 89.3785 24.3167 88.8912 24.124C88.4038 23.92 88.0128 23.6423 87.7182 23.291C87.4235 22.9397 87.2762 22.4863 87.2762 21.931C87.2762 21.0923 87.5822 20.452 88.1942 20.01C88.8062 19.5567 89.6108 19.33 90.6082 19.33C91.5488 19.33 92.3308 19.5397 92.9542 19.959C93.5775 20.3783 93.9855 20.928 94.1782 21.608L92.1892 22.22C92.0985 21.7893 91.9115 21.4833 91.6282 21.302C91.3562 21.1207 91.0162 21.03 90.6082 21.03C90.2002 21.03 89.8885 21.1037 89.6732 21.251C89.4578 21.387 89.3502 21.5797 89.3502 21.829C89.3502 22.101 89.4635 22.305 89.6902 22.441C89.9168 22.5657 90.2228 22.662 90.6082 22.73L91.0842 22.815C91.7188 22.9283 92.2912 23.0813 92.8012 23.274C93.3225 23.4553 93.7305 23.7217 94.0252 24.073C94.3312 24.413 94.4842 24.8777 94.4842 25.467C94.4842 26.351 94.1612 27.0367 93.5152 27.524C92.8805 28 92.0248 28.238 90.9482 28.238ZM95.1712 28V19.568H97.3132V28H95.1712ZM96.2422 18.582C95.8569 18.582 95.5282 18.4573 95.2562 18.208C94.9955 17.9587 94.8652 17.63 94.8652 17.222C94.8652 16.814 94.9955 16.4853 95.2562 16.236C95.5282 15.9867 95.8569 15.862 96.2422 15.862C96.6389 15.862 96.9675 15.9867 97.2282 16.236C97.4889 16.4853 97.6192 16.814 97.6192 17.222C97.6192 17.63 97.4889 17.9587 97.2282 18.208C96.9675 18.4573 96.6389 18.582 96.2422 18.582ZM101.727 28C101.172 28 100.718 27.83 100.367 27.49C100.027 27.1387 99.8568 26.674 99.8568 26.096V21.336H97.7488V19.568H99.8568V16.95H101.999V19.568H104.311V21.336H101.999V25.722C101.999 26.062 102.158 26.232 102.475 26.232H104.107V28H101.727ZM108.603 28.238C107.764 28.238 107.022 28.0623 106.376 27.711C105.741 27.3483 105.243 26.844 104.88 26.198C104.529 25.5407 104.353 24.77 104.353 23.886V23.682C104.353 22.798 104.529 22.033 104.88 21.387C105.231 20.7297 105.724 20.2253 106.359 19.874C106.994 19.5113 107.73 19.33 108.569 19.33C109.396 19.33 110.116 19.517 110.728 19.891C111.34 20.2537 111.816 20.7637 112.156 21.421C112.496 22.067 112.666 22.8207 112.666 23.682V24.413H106.529C106.552 24.991 106.767 25.4613 107.175 25.824C107.583 26.1867 108.082 26.368 108.671 26.368C109.272 26.368 109.714 26.2377 109.997 25.977C110.28 25.7163 110.496 25.4273 110.643 25.11L112.394 26.028C112.235 26.3227 112.003 26.6457 111.697 26.997C111.402 27.337 111.006 27.6317 110.507 27.881C110.008 28.119 109.374 28.238 108.603 28.238ZM106.546 22.815H110.49C110.445 22.3277 110.246 21.9367 109.895 21.642C109.555 21.3473 109.107 21.2 108.552 21.2C107.974 21.2 107.515 21.3473 107.175 21.642C106.835 21.9367 106.625 22.3277 106.546 22.815Z" fill="url(#paint4_linear)"/>
<path d="M37 22C37 20.9494 36.7931 19.9091 36.391 18.9385C35.989 17.9679 35.3997 17.086 34.6569 16.3431C33.914 15.6003 33.0321 15.011 32.0615 14.609C31.0909 14.2069 30.0506 14 29 14C26.8783 14 24.8434 14.8429 23.3431 16.3431C21.8429 17.8434 21 19.8783 21 22C21 24.1217 21.8429 26.1566 23.3431 27.6569C24.8434 29.1571 26.8783 30 29 30C31.1217 30 33.1566 29.1571 34.6569 27.6569C36.1571 26.1566 37 24.1217 37 22V22ZM35.344 21.2H33C32.8681 19.3185 32.2234 17.5091 31.136 15.968C32.2532 16.3648 33.2382 17.0641 33.9812 17.9879C34.7242 18.9117 35.196 20.0237 35.344 21.2V21.2ZM26.664 22.8H31.4C31.1953 24.7765 30.3528 26.6326 29 28.088C27.6481 26.6387 26.825 24.7754 26.664 22.8V22.8ZM26.664 21.2C26.8503 19.2335 27.6701 17.3806 29 15.92C30.3638 17.3649 31.2081 19.2224 31.4 21.2H26.664ZM26.952 15.944C25.8588 17.4936 25.2038 19.3094 25.056 21.2H22.656C22.8071 20.0092 23.2901 18.8849 24.0497 17.9555C24.8094 17.0261 25.8151 16.3291 26.952 15.944V15.944ZM22.656 22.8H25.056C25.1878 24.689 25.8383 26.505 26.936 28.048C25.8032 27.6611 24.8016 26.9642 24.045 26.0365C23.2884 25.1088 22.8072 23.9875 22.656 22.8V22.8ZM31.096 28.04C32.1907 26.4965 32.8485 24.6862 33 22.8H35.36C35.2087 23.9842 34.7292 25.1025 33.9757 26.0284C33.2222 26.9544 32.2247 27.6512 31.096 28.04V28.04Z" fill="url(#paint5_linear)"/>
<defs>
<filter id="filter0_d" x="0" y="0" width="54" height="44" filterUnits="userSpaceOnUse" color-interpolation-filters="sRGB">
<feFlood flood-opacity="0" result="BackgroundImageFix"/>
<feColorMatrix in="SourceAlpha" type="matrix" values="0 0 0 0 0 0 0 0 0 0 0 0 0 0 0 0 0 0 127 0" result="hardAlpha"/>
<feMorphology radius="1" operator="dilate" in="SourceAlpha" result="effect1_dropShadow"/>
<feOffset dx="1"/>
<feGaussianBlur stdDeviation="4"/>
<feComposite in2="hardAlpha" operator="out"/>
<feColorMatrix type="matrix" values="0 0 0 0 0 0 0 0 0 0 0 0 0 0 0 0 0 0 0.2 0"/>
<feBlend mode="normal" in2="BackgroundImageFix" result="effect1_dropShadow"/>
<feBlend mode="normal" in="SourceGraphic" in2="effect1_dropShadow" result="shape"/>
</filter>
<linearGradient id="paint0_linear" x1="67" y1="9" x2="67" y2="35" gradientUnits="userSpaceOnUse">
<stop stop-color="white"/>
<stop offset="1" stop-color="#D3D3D3"/>
</linearGradient>
<linearGradient id="paint1_linear" x1="42.5" y1="40" x2="19.2997" y2="-1.96989" gradientUnits="userSpaceOnUse">
<stop stop-color="#A84729"/>
<stop offset="1" stop-color="#29009F"/>
</linearGradient>
<linearGradient id="paint2_linear" x1="26" y1="9" x2="26" y2="35" gradientUnits="userSpaceOnUse">
<stop stop-color="#565656"/>
<stop offset="1" stop-color="#222222"/>
</linearGradient>
<linearGradient id="paint3_linear" x1="10" y1="9" x2="10" y2="35" gradientUnits="userSpaceOnUse">
<stop stop-color="white"/>
<stop offset="1" stop-color="#D3D3D3"/>
</linearGradient>
<linearGradient id="paint4_linear" x1="84" y1="11" x2="84" y2="33" gradientUnits="userSpaceOnUse">
<stop/>
<stop offset="1" stop-opacity="0.81"/>
</linearGradient>
<linearGradient id="paint5_linear" x1="22.5" y1="14" x2="33" y2="32" gradientUnits="userSpaceOnUse">
<stop stop-color="#F1F1F1"/>
<stop offset="1" stop-color="#767676"/>
</linearGradient>
</defs>
</svg>
