<svg width="67" height="70" viewBox="0 0 67 70" fill="none" xmlns="http://www.w3.org/2000/svg">
<rect x="8" y="10" width="50" height="50" rx="10" fill="url(#paint0_linear)"/>
<g filter="url(#filter0_d)">
<path d="M44.2075 46.7788L46.5987 20H20L20.0313 20.3475L22.3875 46.7825L22.4075 47.0025L33.1988 50H33.3687L44.185 47L44.205 46.78L44.2075 46.7788ZM33.3225 25.8487H41.0512L40.8188 28.5488L33.1938 31.9387L33.3212 32.5487H40.4763L39.6525 41.9875L33.295 43.75L26.94 41.99L26.54 37.47H29.1562L29.3663 39.7613L29.3862 39.9838L33.2425 41.0087H33.4088L37.2225 39.9487L37.2413 39.7275L37.6013 35.495L37.63 35.15H26.3213L26.0838 32.4337L33.97 29.0575L33.845 28.445H25.745L25.5137 25.845H33.3138L33.3225 25.8487Z" fill="url(#paint1_linear)"/>
</g>
<defs>
<filter id="filter0_d" x="0" y="0" width="66.5987" height="70" filterUnits="userSpaceOnUse" color-interpolation-filters="sRGB">
<feFlood flood-opacity="0" result="BackgroundImageFix"/>
<feColorMatrix in="SourceAlpha" type="matrix" values="0 0 0 0 0 0 0 0 0 0 0 0 0 0 0 0 0 0 127 0" result="hardAlpha"/>
<feOffset/>
<feGaussianBlur stdDeviation="10"/>
<feComposite in2="hardAlpha" operator="out"/>
<feColorMatrix type="matrix" values="0 0 0 0 0 0 0 0 0 0 0 0 0 0 0 0 0 0 0.5 0"/>
<feBlend mode="normal" in2="BackgroundImageFix" result="effect1_dropShadow"/>
<feBlend mode="normal" in="SourceGraphic" in2="effect1_dropShadow" result="shape"/>
</filter>
<linearGradient id="paint0_linear" x1="33" y1="10" x2="33" y2="60" gradientUnits="userSpaceOnUse">
<stop stop-color="#41404D"/>
<stop offset="1" stop-color="#19191F"/>
</linearGradient>
<linearGradient id="paint1_linear" x1="33.2994" y1="20" x2="33.2994" y2="50" gradientUnits="userSpaceOnUse">
<stop stop-color="#68EAE2"/>
<stop offset="1" stop-color="#2A71A5"/>
</linearGradient>
</defs>
</svg>
