<svg width="60" height="70" viewBox="0 0 60 70" fill="none" xmlns="http://www.w3.org/2000/svg">
<rect x="5" y="10" width="50" height="50" rx="10" fill="url(#paint0_linear)"/>
<path d="M21 35C21 32.24 23.0164 30 25.5 30H30V40H25.5C23.0164 40 21 37.76 21 35Z" fill="url(#paint1_linear)"/>
<g filter="url(#filter0_d)">
<path d="M25 49.0625C27.76 49.0625 30 47.0325 30 44.5312V40H25C22.24 40 20 42.03 20 44.5312C20 47.0325 22.24 49.0625 25 49.0625Z" fill="url(#paint2_linear)"/>
<path d="M20 35C20 32.24 22.2405 30 25 30H30V40H25C22.2405 40 20 37.76 20 35Z" fill="url(#paint3_linear)"/>
<path d="M20 25C20 22.24 22.24 20 25 20H30V30H25C22.24 30 20 27.76 20 25Z" fill="url(#paint4_linear)"/>
<path d="M30 20H35C37.76 20 40 22.24 40 25C40 27.76 37.76 30 35 30H30V20Z" fill="url(#paint5_linear)"/>
</g>
<path d="M40 35C40 37.76 37.76 40 35 40C32.24 40 30 37.76 30 35C30 32.24 32.24 30 35 30C37.76 30 40 32.24 40 35Z" fill="url(#paint6_linear)"/>
<defs>
<filter id="filter0_d" x="0" y="0" width="60" height="69.0625" filterUnits="userSpaceOnUse" color-interpolation-filters="sRGB">
<feFlood flood-opacity="0" result="BackgroundImageFix"/>
<feColorMatrix in="SourceAlpha" type="matrix" values="0 0 0 0 0 0 0 0 0 0 0 0 0 0 0 0 0 0 127 0" result="hardAlpha"/>
<feOffset/>
<feGaussianBlur stdDeviation="10"/>
<feComposite in2="hardAlpha" operator="out"/>
<feColorMatrix type="matrix" values="0 0 0 0 0 0 0 0 0 0 0 0 0 0 0 0 0 0 0.5 0"/>
<feBlend mode="normal" in2="BackgroundImageFix" result="effect1_dropShadow"/>
<feBlend mode="normal" in="SourceGraphic" in2="effect1_dropShadow" result="shape"/>
</filter>
<linearGradient id="paint0_linear" x1="30" y1="10" x2="30" y2="60" gradientUnits="userSpaceOnUse">
<stop stop-color="#41404D"/>
<stop offset="1" stop-color="#19191F"/>
</linearGradient>
<linearGradient id="paint1_linear" x1="25.5" y1="30" x2="25.5" y2="40" gradientUnits="userSpaceOnUse">
<stop stop-color="#C699FF"/>
<stop offset="1" stop-color="#8143CF"/>
</linearGradient>
<linearGradient id="paint2_linear" x1="25" y1="40" x2="25" y2="49.0625" gradientUnits="userSpaceOnUse">
<stop stop-color="#46FFB8"/>
<stop offset="1" stop-color="#09A76A"/>
</linearGradient>
<linearGradient id="paint3_linear" x1="25" y1="30" x2="25" y2="40" gradientUnits="userSpaceOnUse">
<stop stop-color="#C699FF"/>
<stop offset="1" stop-color="#8143CF"/>
</linearGradient>
<linearGradient id="paint4_linear" x1="25" y1="20" x2="25" y2="30" gradientUnits="userSpaceOnUse">
<stop stop-color="#FF734A"/>
<stop offset="1" stop-color="#D64C24"/>
</linearGradient>
<linearGradient id="paint5_linear" x1="35" y1="20" x2="35" y2="30" gradientUnits="userSpaceOnUse">
<stop stop-color="#FFA298"/>
<stop offset="1" stop-color="#E66354"/>
</linearGradient>
<linearGradient id="paint6_linear" x1="35" y1="30" x2="35" y2="40" gradientUnits="userSpaceOnUse">
<stop stop-color="#79D8FF"/>
<stop offset="1" stop-color="#3699C1"/>
</linearGradient>
</defs>
</svg>
