<svg width="70" height="70" viewBox="0 0 70 70" fill="none" xmlns="http://www.w3.org/2000/svg">
<rect x="10" y="10" width="50" height="50" rx="10" fill="url(#paint0_linear)"/>
<g filter="url(#filter0_d)">
<path d="M49.4388 33.6624L36.3376 20.5612C35.9727 20.2016 35.481 20 34.9687 20C34.4565 20 33.9647 20.2016 33.5999 20.5612L30.8871 23.2864L34.3374 26.7367C34.7442 26.5971 35.182 26.5748 35.6008 26.6727C36.0196 26.7705 36.4023 26.9843 36.7051 27.2897C37.0078 27.5951 37.2184 27.9796 37.3126 28.3992C37.4068 28.8188 37.3809 29.2565 37.2377 29.662L40.563 32.9873C40.9525 32.8453 41.3731 32.8112 41.7803 32.8886C42.1876 32.966 42.5664 33.1521 42.8766 33.427C43.1868 33.702 43.417 34.0557 43.5427 34.4507C43.6684 34.8457 43.6851 35.2674 43.5909 35.6711C43.4967 36.0748 43.2951 36.4455 43.0076 36.7441C42.72 37.0427 42.3571 37.258 41.9572 37.3673C41.5573 37.4765 41.1353 37.4757 40.7359 37.3649C40.3364 37.2541 39.9743 37.0373 39.6879 36.7377C39.3687 36.4158 39.1511 36.0072 39.0622 35.5627C38.9733 35.1182 39.017 34.6573 39.1879 34.2374L36.0876 31.2497V39.4004C36.3083 39.5156 36.5105 39.663 36.6877 39.8379C37.0407 40.1881 37.2715 40.6426 37.3458 41.1342C37.4202 41.6258 37.3341 42.1283 37.1004 42.5671C36.8667 43.0059 36.4979 43.3578 36.0485 43.5705C35.5991 43.7832 35.0931 43.8454 34.6056 43.7479C34.118 43.6503 33.6749 43.3983 33.3419 43.0292C33.0088 42.66 32.8037 42.1933 32.7567 41.6984C32.7098 41.2034 32.8236 40.7065 33.0813 40.2813C33.339 39.8561 33.7269 39.5253 34.1874 39.3379V31.0371C33.9048 30.9248 33.6476 30.757 33.431 30.5436C33.2144 30.3302 33.0427 30.0756 32.9262 29.7947C32.8096 29.5139 32.7506 29.2125 32.7525 28.9084C32.7544 28.6043 32.8172 28.3037 32.9373 28.0244L29.5495 24.624L20.5612 33.5999C20.2016 33.9647 20 34.4565 20 34.9687C20 35.481 20.2016 35.9727 20.5612 36.3376L33.6624 49.4388C34.0273 49.7984 34.519 50 35.0313 50C35.5435 50 36.0353 49.7984 36.4001 49.4388L49.4388 36.4001C49.7984 36.0353 50 35.5435 50 35.0313C50 34.519 49.7984 34.0273 49.4388 33.6624" fill="url(#paint1_linear)"/>
</g>
<defs>
<filter id="filter0_d" x="0" y="0" width="70" height="70" filterUnits="userSpaceOnUse" color-interpolation-filters="sRGB">
<feFlood flood-opacity="0" result="BackgroundImageFix"/>
<feColorMatrix in="SourceAlpha" type="matrix" values="0 0 0 0 0 0 0 0 0 0 0 0 0 0 0 0 0 0 127 0" result="hardAlpha"/>
<feOffset/>
<feGaussianBlur stdDeviation="10"/>
<feComposite in2="hardAlpha" operator="out"/>
<feColorMatrix type="matrix" values="0 0 0 0 0 0 0 0 0 0 0 0 0 0 0 0 0 0 0.5 0"/>
<feBlend mode="normal" in2="BackgroundImageFix" result="effect1_dropShadow"/>
<feBlend mode="normal" in="SourceGraphic" in2="effect1_dropShadow" result="shape"/>
</filter>
<linearGradient id="paint0_linear" x1="35" y1="10" x2="35" y2="60" gradientUnits="userSpaceOnUse">
<stop stop-color="#41404D"/>
<stop offset="1" stop-color="#19191F"/>
</linearGradient>
<linearGradient id="paint1_linear" x1="35" y1="20" x2="35" y2="50" gradientUnits="userSpaceOnUse">
<stop stop-color="#FF8551"/>
<stop offset="1" stop-color="#B52929"/>
</linearGradient>
</defs>
</svg>
