<svg width="66" height="70" viewBox="0 0 66 70" fill="none" xmlns="http://www.w3.org/2000/svg">
<rect x="8" y="10" width="50" height="50" rx="10" fill="url(#paint0_linear)"/>
<g filter="url(#filter0_d)">
<path d="M43.2962 46.5037L45.625 20H20.0013H20L22.3287 46.5037L32.7787 50L43.2962 46.5037ZM26.19 41.81L25.79 36.7338H28.9725L29.2062 39.285L32.7762 40.2562L36.3587 39.285L36.7587 35.1188H25.6225L24.7688 25.3688H40.8575L40.5638 28.5625H28.3012L28.575 31.8712H40.2925L39.3837 41.8088L32.8513 43.6175V43.6375H32.7775L26.19 41.81Z" fill="url(#paint1_linear)"/>
</g>
<defs>
<filter id="filter0_d" x="0" y="0" width="65.625" height="70" filterUnits="userSpaceOnUse" color-interpolation-filters="sRGB">
<feFlood flood-opacity="0" result="BackgroundImageFix"/>
<feColorMatrix in="SourceAlpha" type="matrix" values="0 0 0 0 0 0 0 0 0 0 0 0 0 0 0 0 0 0 127 0" result="hardAlpha"/>
<feOffset/>
<feGaussianBlur stdDeviation="10"/>
<feComposite in2="hardAlpha" operator="out"/>
<feColorMatrix type="matrix" values="0 0 0 0 0 0 0 0 0 0 0 0 0 0 0 0 0 0 0.5 0"/>
<feBlend mode="normal" in2="BackgroundImageFix" result="effect1_dropShadow"/>
<feBlend mode="normal" in="SourceGraphic" in2="effect1_dropShadow" result="shape"/>
</filter>
<linearGradient id="paint0_linear" x1="33" y1="10" x2="33" y2="60" gradientUnits="userSpaceOnUse">
<stop stop-color="#41404D"/>
<stop offset="1" stop-color="#19191F"/>
</linearGradient>
<linearGradient id="paint1_linear" x1="32.8125" y1="20" x2="32.8125" y2="50" gradientUnits="userSpaceOnUse">
<stop stop-color="#FF9458"/>
<stop offset="1" stop-color="#C03131"/>
</linearGradient>
</defs>
</svg>
