<svg width="70" height="70" viewBox="0 0 70 70" fill="none" xmlns="http://www.w3.org/2000/svg">
<path d="M10 20C10 14.4772 14.4772 10 20 10H50C55.5228 10 60 14.4772 60 20V50C60 55.5228 55.5228 60 50 60H20C14.4772 60 10 55.5228 10 50V20Z" fill="url(#paint0_linear)"/>
<g filter="url(#filter0_d)">
<path d="M47.2812 20H22.7188C21.2175 20.0013 20.0013 21.2175 20 22.7188V47.2812C20.0013 48.7825 21.2175 49.9987 22.7188 50H47.2812C48.7825 49.9987 49.9987 48.7825 50 47.2812V22.7188C49.9987 21.2175 48.7825 20.0013 47.2812 20ZM30.025 25.8344C30.025 25.834 30.0253 25.8337 30.0256 25.8337C31.0203 25.8341 31.8275 26.6415 31.8275 27.6363C31.8275 28.6256 31.0292 29.4296 30.042 29.4387C30.0326 29.4388 30.025 29.4463 30.025 29.4556V29.4556C30.025 29.4649 30.0174 29.4725 30.008 29.4724C29.0109 29.4633 28.2063 28.6531 28.2063 27.6538C28.2063 26.649 29.0197 25.8353 30.0244 25.835C30.0247 25.835 30.025 25.8347 30.025 25.8344V25.8344ZM42.2984 43.0979C42.2962 43.1009 42.293 43.1028 42.2893 43.1032C42.2044 43.114 42.1065 43.1188 42.0075 43.1188C40.645 43.1188 39.54 42.0137 39.54 40.6512C39.54 40.5937 39.5425 40.5375 39.5462 40.4813V40.4888C39.5462 40.485 39.5462 40.4813 39.5462 40.4775C39.5462 40 39.615 39.54 39.7425 39.1038L39.7337 39.1388L40.6213 35.9575C40.7088 35.6812 40.7588 35.3625 40.7588 35.0338C40.7588 35.0188 40.7588 35.0025 40.7588 34.9875V34.99C40.7625 34.9487 40.765 34.9012 40.765 34.8525C40.765 34.0175 40.0887 33.3413 39.2537 33.3413C39.2112 33.3413 39.17 33.3425 39.1287 33.3463H39.1338C37.8675 33.3463 37.0337 34.255 36.6025 36.0088L35.1532 41.8176C34.9904 42.4698 34.4046 42.9275 33.7324 42.9275H32.1462C32.0007 42.9275 31.8939 42.7909 31.929 42.6497V42.6497C31.9931 42.3914 31.371 42.0806 31.1592 42.242C30.4883 42.7531 29.6658 43.0677 28.7712 43.1087H28.7625C28.6738 43.12 28.5725 43.1262 28.4688 43.1262C27.135 43.1262 26.0538 42.045 26.0538 40.7113C26.0538 40.625 26.0588 40.54 26.0675 40.4562L26.0663 40.4662C26.0713 39.9825 26.13 39.5162 26.2375 39.0675L26.2287 39.11L27.3533 34.5199C27.4807 33.9996 27.0868 33.4975 26.5511 33.4975V33.4975C26.0066 33.4975 25.6112 32.9798 25.7544 32.4544L25.8789 31.9976C26.0198 31.481 26.489 31.1225 27.0246 31.1225H28.0285C29.6592 31.1225 30.854 32.6574 30.4538 34.2382L29.2175 39.1225C29.1125 39.4888 29.045 39.91 29.03 40.3463V40.355C29.03 40.6565 29.1165 40.8325 29.2684 40.9442C29.5049 41.118 29.8257 41.114 30.1166 41.0755C31.4002 40.9057 32.4563 40.0178 32.8687 38.8288L32.8762 38.805L33.9442 34.5233C34.0748 33.9996 33.6786 33.4925 33.1389 33.4925V33.4925C32.5902 33.4925 32.1925 32.9695 32.3392 32.4408L32.4594 32.0074C32.6001 31.5 33.062 31.1487 33.5886 31.1487H36.9969C37.1768 31.1487 37.3105 31.3154 37.2714 31.491V31.491C37.199 31.8169 37.9824 32.1862 38.2443 31.9792C38.952 31.4197 39.8035 31.042 40.7337 30.9088L40.7625 30.905C42.4863 30.9137 43.8812 32.3137 43.8812 34.0387C43.8812 34.1762 43.8725 34.3125 43.855 34.4462L43.8562 34.43V34.435C43.8562 35.1363 43.7462 35.8112 43.5437 36.445L43.5562 36.3988L42.6938 39.4937C42.625 39.7375 42.58 40.02 42.5688 40.3113V40.3187C42.5688 40.8612 42.7937 41.125 43.1862 41.125C43.5232 41.125 43.9588 40.9039 44.4431 39.7971C44.5897 39.4621 44.968 39.2826 45.3096 39.413V39.413C45.624 39.533 45.7976 39.8752 45.6854 40.1925C44.9639 42.234 43.7699 43.0898 42.3093 43.0925C42.3051 43.0925 42.301 43.0945 42.2984 43.0979V43.0979Z" fill="url(#paint1_linear)"/>
</g>
<defs>
<filter id="filter0_d" x="0" y="0" width="70" height="70" filterUnits="userSpaceOnUse" color-interpolation-filters="sRGB">
<feFlood flood-opacity="0" result="BackgroundImageFix"/>
<feColorMatrix in="SourceAlpha" type="matrix" values="0 0 0 0 0 0 0 0 0 0 0 0 0 0 0 0 0 0 127 0" result="hardAlpha"/>
<feOffset/>
<feGaussianBlur stdDeviation="10"/>
<feComposite in2="hardAlpha" operator="out"/>
<feColorMatrix type="matrix" values="0 0 0 0 0 0 0 0 0 0 0 0 0 0 0 0 0 0 0.5 0"/>
<feBlend mode="normal" in2="BackgroundImageFix" result="effect1_dropShadow"/>
<feBlend mode="normal" in="SourceGraphic" in2="effect1_dropShadow" result="shape"/>
</filter>
<linearGradient id="paint0_linear" x1="35" y1="10" x2="35" y2="60" gradientUnits="userSpaceOnUse">
<stop stop-color="#41404D"/>
<stop offset="1" stop-color="#19191F"/>
</linearGradient>
<linearGradient id="paint1_linear" x1="35" y1="20" x2="35" y2="50" gradientUnits="userSpaceOnUse">
<stop stop-color="#FF71A4"/>
<stop offset="1" stop-color="#C0344D"/>
</linearGradient>
</defs>
</svg>
