<svg width="65" height="72" viewBox="0 0 65 72" fill="none" xmlns="http://www.w3.org/2000/svg">
<rect x="7" y="11" width="50" height="50" rx="10" fill="url(#paint0_linear)"/>
<g filter="url(#filter0_d)">
<path d="M31.2551 38.5338C31.063 38.5338 30.8695 38.4778 30.6987 38.3644C30.5493 38.263 27.0213 35.8558 27.0213 32.7482C27.0213 29.4697 29.375 27.7097 31.2671 26.2953C32.7562 25.1825 34.0425 24.2204 34.0425 22.826C34.0425 22.1455 33.6436 21.8013 33.6396 21.7973C33.1992 21.4637 33.1125 20.8352 33.4461 20.3949C33.781 19.9559 34.4068 19.8705 34.8485 20.2014C34.9712 20.2935 36.044 21.1555 36.044 22.8247C36.044 25.2212 34.2253 26.5809 32.4667 27.8965C30.696 29.2202 29.0241 30.4718 29.0241 32.7468C29.0241 34.4401 31.0416 36.1761 31.8182 36.7031C32.2759 37.0127 32.396 37.6345 32.0877 38.0922C31.8916 38.3777 31.5754 38.5338 31.2551 38.5338Z" fill="url(#paint1_linear)"/>
<path d="M33.7637 38.3164C33.2113 38.3164 32.7629 37.8681 32.7629 37.3157C32.7629 36.3883 32.496 36.0947 32.0557 35.609C31.546 35.0473 30.8481 34.2787 30.8481 32.6295C30.8481 29.5805 36.0681 26.5689 37.1142 25.9965C37.5985 25.7296 38.2057 25.9084 38.4725 26.3928C38.7381 26.8772 38.5606 27.4856 38.0762 27.7511C35.968 28.9067 32.8496 31.2564 32.8496 32.6295C32.8496 33.5061 33.1085 33.7917 33.5382 34.2654C34.0559 34.8351 34.7644 35.6171 34.7644 37.317C34.7644 37.8681 34.3161 38.3164 33.7637 38.3164Z" fill="url(#paint2_linear)"/>
<path d="M27.3629 41.6189C25.0905 41.6189 23.137 41.3453 22.1696 40.7502C21.3917 40.2725 21.2769 39.6467 21.2769 39.3158C21.2769 37.5998 24.0684 36.7459 26.4115 36.3309C26.9505 36.2335 27.4736 36.5978 27.571 37.1422C27.6684 37.6866 27.3041 38.2056 26.7611 38.3017C25.5482 38.5179 24.2752 38.9102 23.6254 39.2437C25.7683 39.9563 33.5422 39.7121 37.2436 37.8374C37.7386 37.5892 38.3391 37.7853 38.5886 38.279C38.8381 38.7727 38.6407 39.3745 38.147 39.624C35.6517 40.8836 31.0816 41.6189 27.3629 41.6189ZM28.6585 45.3336C25.1479 45.3336 24.5327 43.7338 24.4367 43.3615C24.2992 42.8264 24.6235 42.2807 25.1585 42.1433C25.6576 42.0125 26.1686 42.2887 26.3448 42.7637C26.4235 42.8611 27.1987 43.6711 30.6 43.1747C34.0599 42.669 34.9539 42.0672 35.102 41.9498C35.3622 41.5722 35.8572 41.4094 36.3002 41.5882C36.8126 41.795 37.0608 42.3781 36.8553 42.8905C36.4604 43.8726 34.4535 44.6345 30.8895 45.1548C30.0395 45.2803 29.3003 45.3336 28.6585 45.3336ZM26.3754 42.8638V42.8651C26.3768 42.8651 26.3754 42.8651 26.3754 42.8638ZM26.3754 42.8611V42.8625C26.3754 42.8625 26.3754 42.8625 26.3754 42.8611ZM34.9993 42.1419V42.1433V42.1419ZM35.0006 42.1392C34.9993 42.1406 34.9993 42.1406 35.0006 42.1392C34.9993 42.1406 34.9993 42.1406 35.0006 42.1392ZM35.0006 42.1366V42.1379C35.0006 42.1379 35.0006 42.1379 35.0006 42.1366Z" fill="url(#paint3_linear)"/>
<path d="M25.9752 49.0978C23.6241 49.0978 21.7333 48.9457 20.9954 48.6521C20.1294 48.3052 20 47.7114 20 47.3872C20 45.9141 22.0469 45.0815 23.2665 44.7172C23.7975 44.5584 24.3539 44.8586 24.5114 45.387C24.6702 45.9154 24.3713 46.4732 23.8416 46.6333C23.4946 46.7387 23.1277 46.8815 22.8101 47.0309C26.7251 47.4739 38.3965 46.5132 39.7362 45.1028C40.1164 44.7012 40.7503 44.6865 41.1519 45.0668C41.5522 45.4471 41.5682 46.0809 41.1879 46.4825C39.4906 48.2665 31.4726 49.0978 25.9752 49.0978Z" fill="url(#paint4_linear)"/>
<path d="M27.6604 52C25.2092 52 23.2558 51.8079 22.4271 51.5103C21.9068 51.3235 21.6372 50.7497 21.8227 50.2307C22.0082 49.7103 22.5833 49.4394 23.1023 49.6262C25.2733 50.4055 37.4945 50.228 42.4942 47.163C42.9652 46.8762 43.5817 47.0229 43.8713 47.494C44.1595 47.9663 44.0114 48.5814 43.5403 48.871C39.7375 51.2007 32.6628 52 27.6604 52ZM37.5545 44.4543C37.1676 44.4543 36.7993 44.2288 36.6365 43.8512C36.4163 43.3442 36.6498 42.7557 37.1569 42.5356C39.0423 41.719 41.6976 39.967 41.6976 38.6326C41.6976 38.3111 41.6069 38.247 41.5722 38.223C41.1439 37.9241 39.8229 38.1616 39.0716 38.4378C38.5553 38.63 37.9775 38.3644 37.7867 37.8454C37.5959 37.3263 37.8601 36.7512 38.3791 36.5604C38.8488 36.387 41.2706 35.5717 42.7157 36.5804C43.1641 36.8927 43.6991 37.5025 43.6991 38.6326C43.6991 41.799 38.5392 44.1194 37.9508 44.373C37.8214 44.429 37.6866 44.4543 37.5545 44.4543Z" fill="url(#paint5_linear)"/>
</g>
<defs>
<filter id="filter0_d" x="0" y="0" width="64.0184" height="72" filterUnits="userSpaceOnUse" color-interpolation-filters="sRGB">
<feFlood flood-opacity="0" result="BackgroundImageFix"/>
<feColorMatrix in="SourceAlpha" type="matrix" values="0 0 0 0 0 0 0 0 0 0 0 0 0 0 0 0 0 0 127 0" result="hardAlpha"/>
<feOffset/>
<feGaussianBlur stdDeviation="10"/>
<feComposite in2="hardAlpha" operator="out"/>
<feColorMatrix type="matrix" values="0 0 0 0 0 0 0 0 0 0 0 0 0 0 0 0 0 0 0.5 0"/>
<feBlend mode="normal" in2="BackgroundImageFix" result="effect1_dropShadow"/>
<feBlend mode="normal" in="SourceGraphic" in2="effect1_dropShadow" result="shape"/>
</filter>
<linearGradient id="paint0_linear" x1="32" y1="11" x2="32" y2="61" gradientUnits="userSpaceOnUse">
<stop stop-color="#41404D"/>
<stop offset="1" stop-color="#19191F"/>
</linearGradient>
<linearGradient id="paint1_linear" x1="31.5327" y1="20" x2="31.5327" y2="38.5338" gradientUnits="userSpaceOnUse">
<stop stop-color="#FFB966"/>
<stop offset="1" stop-color="#BA3D2C"/>
</linearGradient>
<linearGradient id="paint2_linear" x1="34.722" y1="25.8726" x2="34.722" y2="38.3164" gradientUnits="userSpaceOnUse">
<stop stop-color="#FFB966"/>
<stop offset="1" stop-color="#BA3D2C"/>
</linearGradient>
<linearGradient id="paint3_linear" x1="29.9868" y1="36.3151" x2="29.9868" y2="45.3336" gradientUnits="userSpaceOnUse">
<stop stop-color="#8FB1E2"/>
<stop offset="1" stop-color="#0B4172"/>
</linearGradient>
<linearGradient id="paint4_linear" x1="30.7315" y1="44.6747" x2="30.7315" y2="49.0978" gradientUnits="userSpaceOnUse">
<stop stop-color="#8FB1E2"/>
<stop offset="1" stop-color="#0B4172"/>
</linearGradient>
<linearGradient id="paint5_linear" x1="32.8913" y1="36.0849" x2="32.8913" y2="52" gradientUnits="userSpaceOnUse">
<stop stop-color="#8FB1E2"/>
<stop offset="1" stop-color="#0B4172"/>
</linearGradient>
</defs>
</svg>
