<svg width="70" height="70" viewBox="0 0 70 70" fill="none" xmlns="http://www.w3.org/2000/svg">
<rect x="10" y="10" width="50" height="50" rx="10" fill="url(#paint0_linear)"/>
<g filter="url(#filter0_d)">
<path d="M24 20C21.7909 20 20 21.7909 20 24V46C20 48.2091 21.7909 50 24 50H46C48.2091 50 50 48.2091 50 46V24C50 21.7909 48.2091 20 46 20H24ZM35.6576 45.6629C35.6576 45.6632 35.6575 45.6635 35.6574 45.6638C35.2154 46.5617 34.371 47.1521 33.3934 47.4367C31.8903 47.7818 30.4534 47.5853 29.3836 46.9431C29.1444 46.7964 28.9228 46.6233 28.7195 46.4288C28.0205 45.7599 28.36 44.6642 29.1848 44.1584C29.3739 44.0424 29.5631 43.9264 29.7524 43.8106C29.9149 43.7112 30.0766 43.744 30.1716 43.9091V43.9091C30.462 44.397 30.7132 44.7421 31.2069 44.9837C31.6919 45.1486 32.755 45.255 33.1662 44.4018C33.4174 43.9686 33.3368 42.546 33.3368 41.0036C33.3368 39.0436 33.3444 37.1099 33.3472 35.1443C33.3484 34.3695 33.9764 33.7414 34.7512 33.7414V33.7414C35.526 33.7414 36.1542 34.3695 36.1553 35.1443C36.1584 37.255 36.1659 39.3682 36.1541 41.4743C36.1599 43.051 36.2969 44.4839 35.6578 45.6619C35.6577 45.6622 35.6576 45.6626 35.6576 45.6629V45.6629ZM47.2997 44.8706C47.2991 44.8706 47.2986 44.871 47.2984 44.8715C46.3228 48.2075 40.8846 48.3155 38.7126 46.111C38.6052 45.9897 38.5071 45.8819 38.4165 45.7802C37.9304 45.2354 38.193 44.4343 38.8256 44.0695V44.0695C39.4771 43.6937 40.2527 43.9476 40.8229 44.4382C41.1887 44.7528 41.6079 44.958 42.1607 45.0729C43.5382 45.2406 44.9243 44.768 44.6137 43.3052C44.2945 42.1099 41.7935 41.8194 40.0911 40.5416C38.3627 39.3808 37.9582 36.5606 39.3779 34.9492C39.8514 34.353 40.6586 33.9082 41.505 33.6944L42.3888 33.5803C44.0855 33.5458 45.1467 33.9935 45.925 34.8639V34.8639C46.3949 35.3399 46.3179 36.0441 45.7543 36.4043V36.4043C45.1346 36.8003 44.1754 36.583 43.5265 36.2372C43.4308 36.1862 43.3326 36.1442 43.2333 36.111C42.4808 35.8829 41.5309 36.1311 41.3344 36.9268C41.2848 37.1053 41.279 37.2747 41.3211 37.5095C41.3568 37.7081 41.4204 37.9052 41.5466 38.0625C41.964 38.5831 42.8396 38.8588 43.6359 39.2245C46.2797 40.2972 47.1722 41.4456 47.3917 42.8144C47.6021 43.9899 47.3411 44.7532 47.3009 44.8698C47.3007 44.8704 47.3002 44.8706 47.2997 44.8706V44.8706Z" fill="url(#paint1_linear)"/>
</g>
<defs>
<filter id="filter0_d" x="0" y="0" width="70" height="70" filterUnits="userSpaceOnUse" color-interpolation-filters="sRGB">
<feFlood flood-opacity="0" result="BackgroundImageFix"/>
<feColorMatrix in="SourceAlpha" type="matrix" values="0 0 0 0 0 0 0 0 0 0 0 0 0 0 0 0 0 0 127 0" result="hardAlpha"/>
<feOffset/>
<feGaussianBlur stdDeviation="10"/>
<feComposite in2="hardAlpha" operator="out"/>
<feColorMatrix type="matrix" values="0 0 0 0 0 0 0 0 0 0 0 0 0 0 0 0 0 0 0.5 0"/>
<feBlend mode="normal" in2="BackgroundImageFix" result="effect1_dropShadow"/>
<feBlend mode="normal" in="SourceGraphic" in2="effect1_dropShadow" result="shape"/>
</filter>
<linearGradient id="paint0_linear" x1="35" y1="10" x2="35" y2="60" gradientUnits="userSpaceOnUse">
<stop stop-color="#41404D"/>
<stop offset="1" stop-color="#19191F"/>
</linearGradient>
<linearGradient id="paint1_linear" x1="35" y1="20" x2="35" y2="50" gradientUnits="userSpaceOnUse">
<stop stop-color="#FFD56A"/>
<stop offset="1" stop-color="#D08D28"/>
</linearGradient>
</defs>
</svg>
