<svg width="74" height="57" viewBox="0 0 74 57" fill="none" xmlns="http://www.w3.org/2000/svg">
<rect x="12" y="4" width="50" height="50" rx="10" fill="url(#paint0_linear)"/>
<g filter="url(#filter0_d)">
<path d="M37 20C27.4672 20 20 23.7343 20 28.5C20 33.2657 27.4672 37 37 37C46.5327 37 54 33.2657 54 28.5C54 23.7343 46.5327 20 37 20Z" fill="url(#paint1_linear)"/>
<path d="M33.5703 25.3323C33.3079 24.9943 32.9714 24.7209 32.5868 24.5333C32.2022 24.3456 31.7797 24.2487 31.3518 24.25H27.8285L25.3493 34.1667H26.8099L27.5183 31.3333H30.0045C31.8759 31.3333 33.5023 30.064 33.957 28.2478L34.0817 27.7463C34.1866 27.3316 34.1951 26.8984 34.1065 26.4799C34.0178 26.0614 33.8344 25.6688 33.5703 25.3323ZM32.7075 27.4035L32.5828 27.9036C32.4395 28.4788 32.1078 28.9896 31.6405 29.3544C31.1733 29.7192 30.5973 29.9172 30.0045 29.9167H27.8724L28.9349 25.6667H31.3518C31.5644 25.666 31.7744 25.7142 31.9655 25.8075C32.1566 25.9008 32.3237 26.0368 32.4539 26.205C32.7203 26.545 32.8123 26.9842 32.7089 27.4035H32.7075ZM48.4453 25.3323C48.1829 24.9943 47.8464 24.7209 47.4618 24.5333C47.0772 24.3456 46.6547 24.2487 46.2268 24.25H42.7035L40.2243 34.1667H41.6849L42.3933 31.3333H44.8795C46.7509 31.3333 48.3773 30.064 48.832 28.2478L48.9567 27.7463C49.0616 27.3316 49.0701 26.8984 48.9815 26.4799C48.8928 26.0614 48.7094 25.6688 48.4453 25.3323V25.3323ZM47.5825 27.4035L47.4578 27.9036C47.3145 28.4788 46.9828 28.9896 46.5155 29.3544C46.0483 29.7192 45.4723 29.9172 44.8795 29.9167H42.7474L43.8099 25.6667H46.2268C46.4394 25.666 46.6494 25.7142 46.8405 25.8075C47.0316 25.9008 47.1987 26.0368 47.3289 26.205C47.5953 26.545 47.6873 26.9842 47.5839 27.4035H47.5825ZM40.8179 25.1142C40.5983 24.8436 40.321 24.6257 40.0063 24.4761C39.6915 24.3266 39.3474 24.2494 38.9989 24.25H36.7535L37.2692 21.4167H35.8298L34.025 31.3333H35.4643L36.4943 25.6667H38.9975C39.278 25.6667 39.5401 25.7913 39.7172 26.0095C39.8943 26.2277 39.9637 26.5096 39.9141 26.7561L38.7638 31.3333H40.2243L41.2953 27.072C41.3666 26.7307 41.3607 26.3778 41.2781 26.0391C41.1955 25.7003 41.0383 25.3843 40.8179 25.1142Z" fill="url(#paint2_linear)"/>
</g>
<defs>
<filter id="filter0_d" x="0" y="0" width="74" height="57" filterUnits="userSpaceOnUse" color-interpolation-filters="sRGB">
<feFlood flood-opacity="0" result="BackgroundImageFix"/>
<feColorMatrix in="SourceAlpha" type="matrix" values="0 0 0 0 0 0 0 0 0 0 0 0 0 0 0 0 0 0 127 0" result="hardAlpha"/>
<feOffset/>
<feGaussianBlur stdDeviation="10"/>
<feComposite in2="hardAlpha" operator="out"/>
<feColorMatrix type="matrix" values="0 0 0 0 0 0 0 0 0 0 0 0 0 0 0 0 0 0 0.5 0"/>
<feBlend mode="normal" in2="BackgroundImageFix" result="effect1_dropShadow"/>
<feBlend mode="normal" in="SourceGraphic" in2="effect1_dropShadow" result="shape"/>
</filter>
<linearGradient id="paint0_linear" x1="37" y1="4" x2="37" y2="54" gradientUnits="userSpaceOnUse">
<stop stop-color="#41404D"/>
<stop offset="1" stop-color="#19191F"/>
</linearGradient>
<linearGradient id="paint1_linear" x1="37" y1="20" x2="37" y2="37" gradientUnits="userSpaceOnUse">
<stop stop-color="#999BCD"/>
<stop offset="1" stop-color="#3D3F74"/>
</linearGradient>
<linearGradient id="paint2_linear" x1="37.1958" y1="21.4167" x2="37.1958" y2="34.1667" gradientUnits="userSpaceOnUse">
<stop stop-color="white"/>
<stop offset="1" stop-color="#DADADA"/>
</linearGradient>
</defs>
</svg>
