<svg width="69" height="70" viewBox="0 0 69 70" fill="none" xmlns="http://www.w3.org/2000/svg">
<rect x="9" y="10" width="50" height="50" rx="10" fill="url(#paint0_linear)"/>
<g filter="url(#filter0_d)">
<path d="M23.7622 41.9431L23.0392 41.5822L27.6153 36.6784L28.6936 37.8336L23.7622 41.9431ZM39.4909 46.0308L23.0392 28.4042L23.7277 28.0605L39.4909 42.511V46.0308ZM39.4909 28.8364L33.4594 33.8621L31.7271 32.2735L39.4909 23.9556V28.8364ZM46.388 43.9973L41.7899 46.7561V23.2291L46.388 25.988V43.9973Z" fill="url(#paint1_linear)"/>
<path d="M48.1295 24.3522L41.2324 20.2139C41.2014 20.1956 41.1669 20.1864 41.1336 20.1714C40.6772 19.8978 40.0875 19.9473 39.7093 20.3519L30.0316 30.7216L24.6979 25.8316C24.3461 25.5097 23.8312 25.4396 23.407 25.6511L20.6355 27.0363C20.3102 27.1984 20.0815 27.503 20.0182 27.8605C19.955 28.218 20.0619 28.5835 20.3091 28.8479L26.044 34.9932L20.3091 41.1384C20.0619 41.4028 19.9539 41.7695 20.0182 42.1259C20.0826 42.4822 20.3114 42.788 20.6355 42.9501L23.407 44.3364C23.5702 44.418 23.7461 44.4571 23.9208 44.4571C24.1841 44.4571 24.4462 44.3663 24.6577 44.1904L30.2661 39.5165L39.7093 49.6345C39.9358 49.877 40.2427 50 40.5496 50C40.76 50 40.9623 49.923 41.1474 49.808C41.1749 49.7942 41.2048 49.7885 41.2313 49.7724L48.1283 45.6342C48.4743 45.4273 48.687 45.0525 48.687 44.649V25.3373C48.687 24.9338 48.4743 24.5591 48.1295 24.3522ZM23.7622 41.9431L23.0392 41.5822L27.6153 36.6784L28.6936 37.8336L23.7622 41.9431ZM39.4909 46.0308L23.0392 28.4042L23.7277 28.0605L39.4909 42.511V46.0308ZM39.4909 39.3912L35.1699 35.43L39.4909 31.8297V39.3912ZM39.4909 28.8364L33.4594 33.8621L31.7271 32.2735L39.4909 23.9556V28.8364ZM46.388 43.9973L41.7899 46.7561V23.2291L46.388 25.988V43.9973Z" fill="url(#paint2_linear)"/>
</g>
<defs>
<filter id="filter0_d" x="0" y="0" width="68.687" height="70" filterUnits="userSpaceOnUse" color-interpolation-filters="sRGB">
<feFlood flood-opacity="0" result="BackgroundImageFix"/>
<feColorMatrix in="SourceAlpha" type="matrix" values="0 0 0 0 0 0 0 0 0 0 0 0 0 0 0 0 0 0 127 0" result="hardAlpha"/>
<feOffset/>
<feGaussianBlur stdDeviation="10"/>
<feComposite in2="hardAlpha" operator="out"/>
<feColorMatrix type="matrix" values="0 0 0 0 0 0 0 0 0 0 0 0 0 0 0 0 0 0 0.5 0"/>
<feBlend mode="normal" in2="BackgroundImageFix" result="effect1_dropShadow"/>
<feBlend mode="normal" in="SourceGraphic" in2="effect1_dropShadow" result="shape"/>
</filter>
<linearGradient id="paint0_linear" x1="34" y1="10" x2="34" y2="60" gradientUnits="userSpaceOnUse">
<stop stop-color="#41404D"/>
<stop offset="1" stop-color="#19191F"/>
</linearGradient>
<linearGradient id="paint1_linear" x1="34.3435" y1="20" x2="34.3435" y2="50" gradientUnits="userSpaceOnUse">
<stop stop-color="#4FB4F8"/>
<stop offset="1" stop-color="#003E9B"/>
<stop offset="1" stop-color="#134EA7"/>
</linearGradient>
<linearGradient id="paint2_linear" x1="34.3435" y1="20" x2="34.3435" y2="50" gradientUnits="userSpaceOnUse">
<stop stop-color="#4FB4F8"/>
<stop offset="1" stop-color="#003E9B"/>
<stop offset="1" stop-color="#134EA7"/>
</linearGradient>
</defs>
</svg>
