<svg width="61" height="26" viewBox="0 0 61 26" fill="none" xmlns="http://www.w3.org/2000/svg">
<rect width="61" height="26" rx="4" fill="url(#paint0_linear_336_57)"/>
<path d="M30.51 14.478C30.51 17.538 32.414 19.238 35.406 19.238C38.398 19.238 40.132 17.538 40.132 14.954V14.512H37.888V14.988C37.888 16.178 37.038 17.232 35.406 17.232C33.774 17.232 32.754 16.178 32.754 14.512V11.588C32.754 9.922 33.774 8.868 35.406 8.868C37.038 8.868 37.888 9.922 37.888 11.112V11.452H40.132V11.146C40.132 8.562 38.398 6.862 35.406 6.862C32.414 6.862 30.51 8.562 30.51 11.622V14.478ZM39.9292 10.228V12.132H41.7652V13.968H39.9292V15.872H41.7652V19H43.7372V15.872H45.5732V19H47.5452V15.872H49.3812V13.968H47.5452V12.132H49.3812V10.228H47.5452V7.1H45.5732V10.228H43.7372V7.1H41.7652V10.228H39.9292ZM43.7372 12.132H45.5732V13.968H43.7372V12.132Z" fill="url(#paint1_linear_336_57)"/>
<path d="M18.8506 12.9343H17.9621V12.0457H18.8506V12.9343Z" fill="url(#paint2_linear_336_57)"/>
<path fill-rule="evenodd" clip-rule="evenodd" d="M16.5511 5.14408L22.4311 8.46754C22.6037 8.56529 22.7472 8.70703 22.8471 8.87831C22.9471 9.0496 22.9998 9.24431 23 9.44262V16.0691C22.9998 16.2674 22.9471 16.4621 22.8471 16.6334C22.7472 16.8047 22.6037 16.9464 22.4311 17.0441L16.5511 20.3676C16.3828 20.4621 16.193 20.5117 16 20.5117C15.807 20.5117 15.6172 20.4621 15.4489 20.3676L9.56889 17.0442C9.39635 16.9464 9.2528 16.8047 9.15286 16.6334C9.05293 16.4621 9.00018 16.2674 9 16.0691V9.44262C9.00018 9.24432 9.05292 9.04961 9.15286 8.87833C9.25279 8.70704 9.39634 8.56531 9.56889 8.46758L15.4489 5.14408C15.6172 5.04961 15.807 5 16 5C16.193 5 16.3828 5.04961 16.5511 5.14408ZM12.3329 14.8065C12.7349 15.1873 13.2796 15.3777 13.9672 15.3777C14.6495 15.3777 15.1757 15.1926 15.5459 14.8224C15.9214 14.4469 16.1092 13.9339 16.1092 13.2833V13.1723H15.0779V13.3151C15.0779 13.6377 14.9853 13.9074 14.8002 14.1243C14.6204 14.3358 14.3427 14.4416 13.9672 14.4416C13.597 14.4416 13.3061 14.3279 13.0945 14.1005C12.883 13.8678 12.7772 13.5584 12.7772 13.1723V11.8077C12.7772 11.4164 12.883 11.107 13.0945 10.8795C13.3061 10.6521 13.597 10.5384 13.9672 10.5384C14.3427 10.5384 14.6204 10.6442 14.8002 10.8557C14.9853 11.0673 15.0779 11.337 15.0779 11.6649V11.7443H16.1092V11.6967C16.1092 11.0461 15.9214 10.5358 15.5459 10.1655C15.1757 9.79002 14.6495 9.60227 13.9672 9.60227C13.2796 9.60227 12.7349 9.79531 12.3329 10.1814C11.931 10.5622 11.73 11.1096 11.73 11.8236V13.1564C11.73 13.8704 11.931 14.4204 12.3329 14.8065ZM17.0577 13.7911V15.2667H17.9621V13.7911H18.8506V15.2667H19.755V13.7911H20.6118V12.9343H19.755V12.0457H20.6118V11.1889H19.755V9.71333H18.8506V11.1889H17.9621V9.71333H17.0577V11.1889H16.2009V12.0457H17.0577V12.9343H16.2009V13.7911H17.0577Z" fill="url(#paint3_linear_336_57)"/>
<defs>
<linearGradient id="paint0_linear_336_57" x1="30.5" y1="0" x2="30.5" y2="26" gradientUnits="userSpaceOnUse">
<stop stop-color="#141414"/>
<stop offset="0.0001" stop-color="#232325"/>
<stop offset="1" stop-color="#18181B"/>
</linearGradient>
<linearGradient id="paint1_linear_336_57" x1="40" y1="2" x2="40" y2="25" gradientUnits="userSpaceOnUse">
<stop stop-color="white"/>
<stop offset="1" stop-color="#CECECE" stop-opacity="0.81"/>
</linearGradient>
<linearGradient id="paint2_linear_336_57" x1="16" y1="5" x2="16" y2="20.5117" gradientUnits="userSpaceOnUse">
<stop stop-color="#C4C4C4"/>
<stop offset="1" stop-color="#8E8E8E"/>
</linearGradient>
<linearGradient id="paint3_linear_336_57" x1="16" y1="5" x2="16" y2="20.5117" gradientUnits="userSpaceOnUse">
<stop stop-color="#C4C4C4"/>
<stop offset="1" stop-color="#8E8E8E"/>
</linearGradient>
</defs>
</svg>
