<svg width="80" height="54" viewBox="0 0 80 54" fill="none" xmlns="http://www.w3.org/2000/svg">
<rect x="10" y="14" width="70" height="26" rx="4" fill="url(#paint0_linear_336_80)"/>
<g filter="url(#filter0_d_336_80)">
<path d="M30.9212 32.0812L32 20H20L20.0141 20.1568L21.0771 32.0829L21.0861 32.1822L25.9546 33.5345H26.0313L30.911 32.181L30.9201 32.0818L30.9212 32.0812ZM26.0104 22.6387H29.4973L29.3924 23.8568L25.9523 25.3862L26.0099 25.6614H29.2378L28.8662 29.9196L25.998 30.7148L23.131 29.9208L22.9505 27.8816H24.1308L24.2256 28.9153L24.2346 29.0156L25.9743 29.4781H26.0493L27.7699 28.9999L27.7784 28.9L27.9408 26.9906L27.9538 26.8349H22.8518L22.7447 25.6095L26.3026 24.0863L26.2462 23.81H22.5919L22.4875 22.637H26.0065L26.0104 22.6387Z" fill="url(#paint1_linear_336_80)"/>
</g>
<path d="M40.51 28.478C40.51 31.538 42.414 33.238 45.406 33.238C48.398 33.238 50.132 31.538 50.132 28.954V28.512H47.888V28.988C47.888 30.178 47.038 31.232 45.406 31.232C43.774 31.232 42.754 30.178 42.754 28.512V25.588C42.754 23.922 43.774 22.868 45.406 22.868C47.038 22.868 47.888 23.922 47.888 25.112V25.452H50.132V25.146C50.132 22.562 48.398 20.862 45.406 20.862C42.414 20.862 40.51 22.562 40.51 25.622V28.478ZM54.2982 20.862C51.7482 20.862 50.0992 22.154 50.0992 24.33C50.0992 26.506 51.5102 27.339 54.0092 27.883L54.4002 27.968C55.9302 28.308 56.7292 28.648 56.7292 29.634C56.7292 30.586 55.9642 31.266 54.4342 31.266C52.9042 31.266 51.9692 30.552 51.9692 29.124V28.954H49.7592V29.124C49.7592 31.708 51.6802 33.238 54.4342 33.238C57.1882 33.238 58.9392 31.742 58.9392 29.566C58.9392 27.39 57.3242 26.506 54.7912 25.962L54.4002 25.877C52.9382 25.554 52.3092 25.146 52.3092 24.262C52.3092 23.378 52.9382 22.834 54.2982 22.834C55.6582 22.834 56.4912 23.378 56.4912 24.738V25.01H58.7012V24.738C58.7012 22.154 56.8482 20.862 54.2982 20.862ZM63.0691 20.862C60.5191 20.862 58.8701 22.154 58.8701 24.33C58.8701 26.506 60.2811 27.339 62.7801 27.883L63.1711 27.968C64.7011 28.308 65.5001 28.648 65.5001 29.634C65.5001 30.586 64.7351 31.266 63.2051 31.266C61.6751 31.266 60.7401 30.552 60.7401 29.124V28.954H58.5301V29.124C58.5301 31.708 60.4511 33.238 63.2051 33.238C65.9591 33.238 67.7101 31.742 67.7101 29.566C67.7101 27.39 66.0951 26.506 63.5621 25.962L63.1711 25.877C61.7091 25.554 61.0801 25.146 61.0801 24.262C61.0801 23.378 61.7091 22.834 63.0691 22.834C64.4291 22.834 65.2621 23.378 65.2621 24.738V25.01H67.4721V24.738C67.4721 22.154 65.6191 20.862 63.0691 20.862Z" fill="url(#paint2_linear_336_80)"/>
<defs>
<filter id="filter0_d_336_80" x="0" y="0" width="52" height="53.5345" filterUnits="userSpaceOnUse" color-interpolation-filters="sRGB">
<feFlood flood-opacity="0" result="BackgroundImageFix"/>
<feColorMatrix in="SourceAlpha" type="matrix" values="0 0 0 0 0 0 0 0 0 0 0 0 0 0 0 0 0 0 127 0" result="hardAlpha"/>
<feOffset/>
<feGaussianBlur stdDeviation="10"/>
<feComposite in2="hardAlpha" operator="out"/>
<feColorMatrix type="matrix" values="0 0 0 0 0 0 0 0 0 0 0 0 0 0 0 0 0 0 0.5 0"/>
<feBlend mode="normal" in2="BackgroundImageFix" result="effect1_dropShadow_336_80"/>
<feBlend mode="normal" in="SourceGraphic" in2="effect1_dropShadow_336_80" result="shape"/>
</filter>
<linearGradient id="paint0_linear_336_80" x1="45" y1="14" x2="45" y2="40" gradientUnits="userSpaceOnUse">
<stop stop-color="#141414"/>
<stop offset="0.0001" stop-color="#232325"/>
<stop offset="1" stop-color="#18181B"/>
</linearGradient>
<linearGradient id="paint1_linear_336_80" x1="26" y1="20" x2="26" y2="33.5345" gradientUnits="userSpaceOnUse">
<stop stop-color="#C4C4C4"/>
<stop offset="1" stop-color="#8E8E8E"/>
</linearGradient>
<linearGradient id="paint2_linear_336_80" x1="54.5" y1="16" x2="54.5" y2="39" gradientUnits="userSpaceOnUse">
<stop stop-color="white"/>
<stop offset="1" stop-color="#CECECE" stop-opacity="0.81"/>
</linearGradient>
</defs>
</svg>
