<svg width="112" height="26" viewBox="0 0 112 26" fill="none" xmlns="http://www.w3.org/2000/svg">
<rect width="112" height="26" rx="4" fill="url(#paint0_linear_336_58)"/>
<path d="M38.194 7.1H35.95V15.43C35.95 16.552 35.372 17.198 34.369 17.198C33.298 17.198 32.686 16.535 32.686 15.43V14.308H30.442V15.43C30.442 17.827 31.989 19.238 34.437 19.238C36.766 19.238 38.194 17.895 38.194 15.43V7.1ZM38.7743 12.71L40.7463 13.373C40.8993 12.608 41.4093 12.03 42.4803 12.03C43.5683 12.03 44.0443 12.642 44.0443 13.424V13.9H41.7323C39.8283 13.9 38.4683 14.801 38.4683 16.535C38.4683 18.269 39.8283 19.238 41.5623 19.238C43.1263 19.238 43.6873 18.388 43.8403 18.014H44.0783V19H46.1183V13.577C46.1183 11.469 44.7243 10.33 42.5143 10.33C40.3213 10.33 39.1823 11.435 38.7743 12.71ZM40.6103 16.484C40.6103 15.906 41.0863 15.498 41.8853 15.498H44.0443V15.634C44.0443 16.756 43.1943 17.504 42.0043 17.504C41.0863 17.504 40.6103 17.079 40.6103 16.484ZM45.4841 10.568L48.3911 19H51.5531L54.4601 10.568H52.1481L50.0571 17.198H49.8871L47.7961 10.568H45.4841ZM53.9919 12.71L55.9639 13.373C56.1169 12.608 56.6269 12.03 57.6979 12.03C58.7859 12.03 59.2619 12.642 59.2619 13.424V13.9H56.9499C55.0459 13.9 53.6859 14.801 53.6859 16.535C53.6859 18.269 55.0459 19.238 56.7799 19.238C58.3439 19.238 58.9049 18.388 59.0579 18.014H59.2959V19H61.3359V13.577C61.3359 11.469 59.9419 10.33 57.7319 10.33C55.5389 10.33 54.3999 11.435 53.9919 12.71ZM55.8279 16.484C55.8279 15.906 56.3039 15.498 57.1029 15.498H59.2619V15.634C59.2619 16.756 58.4119 17.504 57.2219 17.504C56.3039 17.504 55.8279 17.079 55.8279 16.484ZM61.8158 12.931C61.8158 14.597 63.2098 15.209 64.9778 15.549L65.4198 15.634C66.4738 15.838 66.9498 16.093 66.9498 16.637C66.9498 17.181 66.4738 17.606 65.4878 17.606C64.5018 17.606 63.7028 17.198 63.4818 15.974L61.5098 16.484C61.7988 18.252 63.2778 19.238 65.4878 19.238C67.6298 19.238 69.0238 18.235 69.0238 16.467C69.0238 14.699 67.5958 14.223 65.6918 13.849L65.2498 13.764C64.3658 13.594 63.8898 13.356 63.8898 12.795C63.8898 12.285 64.3318 11.962 65.1478 11.962C65.9638 11.962 66.5418 12.302 66.7458 13.22L68.6838 12.625C68.2758 11.265 67.0348 10.33 65.1478 10.33C63.1418 10.33 61.8158 11.265 61.8158 12.931ZM68.7518 14.784C68.7518 17.402 70.6898 19.238 73.1378 19.238C75.5008 19.238 76.8778 17.861 77.3538 16.008L75.2798 15.515C75.0928 16.603 74.4638 17.368 73.1718 17.368C71.8798 17.368 70.8938 16.416 70.8938 14.784C70.8938 13.152 71.8798 12.2 73.1718 12.2C74.4638 12.2 75.0928 13.016 75.2118 14.036L77.2858 13.594C76.9118 11.707 75.4838 10.33 73.1378 10.33C70.6898 10.33 68.7518 12.166 68.7518 14.784ZM79.5929 10.568H77.4849V19H79.6269V14.104C79.6269 12.914 80.4089 12.336 81.4969 12.336H82.7549V10.534H81.8709C80.7999 10.534 80.0859 10.857 79.7629 11.758H79.5929V10.568ZM82.2112 8.12C82.2112 8.987 82.8742 9.582 83.7242 9.582C84.5742 9.582 85.2372 8.987 85.2372 8.12C85.2372 7.253 84.5742 6.658 83.7242 6.658C82.8742 6.658 82.2112 7.253 82.2112 8.12ZM84.7952 10.568H82.6532V19H84.7952V10.568ZM85.514 22.4H87.656V17.912H87.826C88.302 18.592 89.118 19.238 90.58 19.238C92.586 19.238 94.388 17.538 94.388 14.784C94.388 12.03 92.586 10.33 90.58 10.33C89.118 10.33 88.302 10.976 87.792 11.707H87.622V10.568H85.514V22.4ZM89.934 17.402C88.608 17.402 87.622 16.45 87.622 14.784C87.622 13.118 88.608 12.166 89.934 12.166C91.26 12.166 92.246 13.118 92.246 14.784C92.246 16.45 91.26 17.402 89.934 17.402ZM93.6168 12.302H95.7248V17.096C95.7248 18.252 96.4728 19 97.5948 19H99.9748V17.266H98.3428C98.0368 17.266 97.8668 17.096 97.8668 16.756V12.302H100.179V10.568H97.8668V7.95H95.7248V10.568H93.6168V12.302Z" fill="url(#paint1_linear_336_58)"/>
<path d="M16.338 15.858H17.2932V15.948C17.2932 16.704 17.7882 17.082 18.5982 17.082C19.4082 17.082 19.8132 16.722 19.8132 16.218C19.8132 15.696 19.3902 15.516 18.5802 15.336L18.3732 15.291C17.2159 15.0391 16.4993 14.67 16.338 13.8104V15.858Z" fill="url(#paint2_linear_336_58)"/>
<path fill-rule="evenodd" clip-rule="evenodd" d="M11 6C9.89543 6 9 6.89543 9 8V18C9 19.1046 9.89543 20 11 20H21C22.1046 20 23 19.1046 23 18V8C23 6.89543 22.1046 6 21 6H11ZM15.15 11.7H16.338V13.0274C16.5127 12.1081 17.3332 11.574 18.5262 11.574C19.8762 11.574 20.8572 12.258 20.8572 13.626V13.77H19.6872V13.626C19.6872 12.906 19.2462 12.618 18.5262 12.618C17.8062 12.618 17.4732 12.906 17.4732 13.374C17.4732 13.842 17.8062 14.058 18.5802 14.229L18.7872 14.274C20.1282 14.562 20.9832 15.03 20.9832 16.182C20.9832 17.334 20.0562 18.126 18.5982 18.126C17.4601 18.126 16.5907 17.6324 16.264 16.7652C16.0458 17.6511 15.3567 18.126 14.349 18.126C13.053 18.126 12.234 17.379 12.234 16.11V15.516H13.422V16.11C13.422 16.695 13.746 17.046 14.313 17.046C14.844 17.046 15.15 16.704 15.15 16.11V11.7Z" fill="url(#paint3_linear_336_58)"/>
<defs>
<linearGradient id="paint0_linear_336_58" x1="56" y1="0" x2="56" y2="26" gradientUnits="userSpaceOnUse">
<stop stop-color="#141414"/>
<stop offset="0.0001" stop-color="#232325"/>
<stop offset="1" stop-color="#18181B"/>
</linearGradient>
<linearGradient id="paint1_linear_336_58" x1="65.5" y1="2" x2="65.5" y2="25" gradientUnits="userSpaceOnUse">
<stop stop-color="white"/>
<stop offset="1" stop-color="#CECECE" stop-opacity="0.81"/>
</linearGradient>
<linearGradient id="paint2_linear_336_58" x1="16" y1="6" x2="16" y2="20" gradientUnits="userSpaceOnUse">
<stop stop-color="#C4C4C4"/>
<stop offset="1" stop-color="#8E8E8E"/>
</linearGradient>
<linearGradient id="paint3_linear_336_58" x1="16" y1="6" x2="16" y2="20" gradientUnits="userSpaceOnUse">
<stop stop-color="#C4C4C4"/>
<stop offset="1" stop-color="#8E8E8E"/>
</linearGradient>
</defs>
</svg>
