<svg width="52" height="26" viewBox="0 0 52 26" fill="none" xmlns="http://www.w3.org/2000/svg">
<rect width="52" height="26" rx="4" fill="url(#paint0_linear_336_64)"/>
<path d="M30.51 14.478C30.51 17.538 32.414 19.238 35.406 19.238C38.398 19.238 40.132 17.538 40.132 14.954V14.512H37.888V14.988C37.888 16.178 37.038 17.232 35.406 17.232C33.774 17.232 32.754 16.178 32.754 14.512V11.588C32.754 9.922 33.774 8.868 35.406 8.868C37.038 8.868 37.888 9.922 37.888 11.112V11.452H40.132V11.146C40.132 8.562 38.398 6.862 35.406 6.862C32.414 6.862 30.51 8.562 30.51 11.622V14.478Z" fill="url(#paint1_linear_336_64)"/>
<path fill-rule="evenodd" clip-rule="evenodd" d="M16.5511 5.14408L22.4311 8.46754C22.6037 8.56529 22.7472 8.70703 22.8471 8.87831C22.9471 9.0496 22.9998 9.24431 23 9.44262V16.0691C22.9998 16.2674 22.9471 16.4621 22.8471 16.6334C22.7472 16.8047 22.6037 16.9464 22.4311 17.0441L16.5511 20.3676C16.3828 20.4621 16.193 20.5117 16 20.5117C15.807 20.5117 15.6172 20.4621 15.4489 20.3676L9.56889 17.0442C9.39635 16.9464 9.2528 16.8047 9.15286 16.6334C9.05293 16.4621 9.00018 16.2674 9 16.0691V9.44262C9.00018 9.24432 9.05292 9.04961 9.15286 8.87833C9.25279 8.70704 9.39634 8.56531 9.56889 8.46758L15.4489 5.14408C15.6172 5.04961 15.807 5 16 5C16.193 5 16.3828 5.04961 16.5511 5.14408ZM15.8712 15.8509C14.3928 15.8509 13.452 15.0109 13.452 13.4989V12.0877C13.452 10.5757 14.3928 9.73573 15.8712 9.73573C17.3496 9.73573 18.2064 10.5757 18.2064 11.8525V12.0037H17.0976V11.8357C17.0976 11.2477 16.6776 10.7269 15.8712 10.7269C15.0648 10.7269 14.5608 11.2477 14.5608 12.0709V13.5157C14.5608 14.3389 15.0648 14.8597 15.8712 14.8597C16.6776 14.8597 17.0976 14.3389 17.0976 13.7509V13.5157H18.2064V13.7341C18.2064 15.0109 17.3496 15.8509 15.8712 15.8509Z" fill="url(#paint2_linear_336_64)"/>
<defs>
<linearGradient id="paint0_linear_336_64" x1="26" y1="0" x2="26" y2="26" gradientUnits="userSpaceOnUse">
<stop stop-color="#141414"/>
<stop offset="0.0001" stop-color="#232325"/>
<stop offset="1" stop-color="#18181B"/>
</linearGradient>
<linearGradient id="paint1_linear_336_64" x1="35.5" y1="2" x2="35.5" y2="25" gradientUnits="userSpaceOnUse">
<stop stop-color="white"/>
<stop offset="1" stop-color="#CECECE" stop-opacity="0.81"/>
</linearGradient>
<linearGradient id="paint2_linear_336_64" x1="16" y1="5" x2="16" y2="20.5117" gradientUnits="userSpaceOnUse">
<stop stop-color="#C4C4C4"/>
<stop offset="1" stop-color="#8E8E8E"/>
</linearGradient>
</defs>
</svg>
