<svg width="70" height="26" viewBox="0 0 70 26" fill="none" xmlns="http://www.w3.org/2000/svg">
<rect width="70" height="26" rx="4" fill="url(#paint0_linear_336_40)"/>
<path d="M30.51 14.478C30.51 17.538 32.414 19.238 35.406 19.238C38.398 19.238 40.132 17.538 40.132 14.954V14.512H37.888V14.988C37.888 16.178 37.038 17.232 35.406 17.232C33.774 17.232 32.754 16.178 32.754 14.512V11.588C32.754 9.922 33.774 8.868 35.406 8.868C37.038 8.868 37.888 9.922 37.888 11.112V11.452H40.132V11.146C40.132 8.562 38.398 6.862 35.406 6.862C32.414 6.862 30.51 8.562 30.51 11.622V14.478ZM41.1022 12.081V14.019H43.6522V16.603H45.6582V14.019H48.2082V12.081H45.6582V9.497H43.6522V12.081H41.1022ZM50.4542 12.081V14.019H53.0042V16.603H55.0102V14.019H57.5602V12.081H55.0102V9.497H53.0042V12.081H50.4542Z" fill="url(#paint1_linear_336_40)"/>
<path fill-rule="evenodd" clip-rule="evenodd" d="M22.4311 8.54689L16.5511 5.14738C16.3828 5.05075 16.193 5 16 5C15.807 5 15.6172 5.05075 15.4489 5.14738L9.56889 8.54693C9.39634 8.6469 9.25279 8.79187 9.15286 8.96707C9.05292 9.14228 9.00018 9.34144 9 9.54428V16.3224C9.00018 16.5252 9.05293 16.7244 9.15286 16.8996C9.2528 17.0748 9.39635 17.2198 9.56889 17.3198L15.4489 20.7193C15.6172 20.8159 15.807 20.8667 16 20.8667C16.193 20.8667 16.3828 20.8159 16.5511 20.7193L22.4311 17.3198C22.6037 17.2198 22.7472 17.0748 22.8471 16.8996C22.9471 16.7244 22.9998 16.5252 23 16.3224V9.54428C22.9998 9.34144 22.9471 9.14227 22.8471 8.96706C22.7472 8.79186 22.6037 8.64687 22.4311 8.54689ZM12.038 13.343C12.038 14.8037 12.9265 15.6152 14.3228 15.6152C15.7191 15.6152 16.5283 14.8037 16.5283 13.5703V13.3593H15.4811V13.5865C15.4811 14.1545 15.0844 14.6577 14.3228 14.6577C13.5612 14.6577 13.0852 14.1545 13.0852 13.3593V11.9635C13.0852 11.1683 13.5612 10.6651 14.3228 10.6651C15.0844 10.6651 15.4811 11.1683 15.4811 11.7363V11.8986H16.5283V11.7525C16.5283 10.5191 15.7191 9.70758 14.3228 9.70758C12.9265 9.70758 12.038 10.5191 12.038 11.9797V13.343ZM17.1265 11.6341V10.8723H18.1065V9.85651H18.8775V10.8723H19.8575V11.6341H18.8775V12.6499H18.1065V11.6341H17.1265ZM17.1265 14.9756V14.2137H18.1065V13.1979H18.8775V14.2137H19.8575V14.9756H18.8775V15.9914H18.1065V14.9756H17.1265Z" fill="url(#paint2_linear_336_40)"/>
<defs>
<linearGradient id="paint0_linear_336_40" x1="35" y1="0" x2="35" y2="26" gradientUnits="userSpaceOnUse">
<stop stop-color="#141414"/>
<stop offset="0.0001" stop-color="#232325"/>
<stop offset="1" stop-color="#18181B"/>
</linearGradient>
<linearGradient id="paint1_linear_336_40" x1="45" y1="2" x2="45" y2="25" gradientUnits="userSpaceOnUse">
<stop stop-color="white"/>
<stop offset="1" stop-color="#CECECE" stop-opacity="0.81"/>
</linearGradient>
<linearGradient id="paint2_linear_336_40" x1="16" y1="5" x2="16" y2="20.8667" gradientUnits="userSpaceOnUse">
<stop stop-color="#C4C4C4"/>
<stop offset="1" stop-color="#8E8E8E"/>
</linearGradient>
</defs>
</svg>
