<svg width="71" height="26" viewBox="0 0 71 26" fill="none" xmlns="http://www.w3.org/2000/svg">
<rect width="71" height="26" rx="4" fill="url(#paint0_linear_336_80)"/>
<path d="M20.9212 18.0812L22 6H10L10.0141 6.15677L11.0771 18.0829L11.0861 18.1822L15.9546 19.5345H16.0313L20.911 18.181L20.9201 18.0818L20.9212 18.0812ZM16.0104 8.63866H19.4973L19.3924 9.85676L15.9523 11.3862L16.0099 11.6614H19.2378L18.8662 15.9196L15.998 16.7148L13.131 15.9208L12.9505 13.8816H14.1308L14.2256 14.9153L14.2346 15.0156L15.9743 15.4781H16.0493L17.7699 14.9999L17.7784 14.9L17.9408 12.9906L17.9538 12.8349H12.8518L12.7447 11.6095L16.3026 10.0863L16.2462 9.80995H12.5919L12.4875 8.63697H16.0065L16.0104 8.63866Z" fill="url(#paint1_linear_336_80)"/>
<path d="M30.51 14.478C30.51 17.538 32.414 19.238 35.406 19.238C38.398 19.238 40.132 17.538 40.132 14.954V14.512H37.888V14.988C37.888 16.178 37.038 17.232 35.406 17.232C33.774 17.232 32.754 16.178 32.754 14.512V11.588C32.754 9.922 33.774 8.868 35.406 8.868C37.038 8.868 37.888 9.922 37.888 11.112V11.452H40.132V11.146C40.132 8.562 38.398 6.862 35.406 6.862C32.414 6.862 30.51 8.562 30.51 11.622V14.478ZM44.2982 6.862C41.7482 6.862 40.0992 8.154 40.0992 10.33C40.0992 12.506 41.5102 13.339 44.0092 13.883L44.4002 13.968C45.9302 14.308 46.7292 14.648 46.7292 15.634C46.7292 16.586 45.9642 17.266 44.4342 17.266C42.9042 17.266 41.9692 16.552 41.9692 15.124V14.954H39.7592V15.124C39.7592 17.708 41.6802 19.238 44.4342 19.238C47.1882 19.238 48.9392 17.742 48.9392 15.566C48.9392 13.39 47.3242 12.506 44.7912 11.962L44.4002 11.877C42.9382 11.554 42.3092 11.146 42.3092 10.262C42.3092 9.378 42.9382 8.834 44.2982 8.834C45.6582 8.834 46.4912 9.378 46.4912 10.738V11.01H48.7012V10.738C48.7012 8.154 46.8482 6.862 44.2982 6.862ZM53.0691 6.862C50.5191 6.862 48.8701 8.154 48.8701 10.33C48.8701 12.506 50.2811 13.339 52.7801 13.883L53.1711 13.968C54.7011 14.308 55.5001 14.648 55.5001 15.634C55.5001 16.586 54.7351 17.266 53.2051 17.266C51.6751 17.266 50.7401 16.552 50.7401 15.124V14.954H48.5301V15.124C48.5301 17.708 50.4511 19.238 53.2051 19.238C55.9591 19.238 57.7101 17.742 57.7101 15.566C57.7101 13.39 56.0951 12.506 53.5621 11.962L53.1711 11.877C51.7091 11.554 51.0801 11.146 51.0801 10.262C51.0801 9.378 51.7091 8.834 53.0691 8.834C54.4291 8.834 55.2621 9.378 55.2621 10.738V11.01H57.4721V10.738C57.4721 8.154 55.6191 6.862 53.0691 6.862Z" fill="url(#paint2_linear_336_80)"/>
<defs>
<linearGradient id="paint0_linear_336_80" x1="35.5" y1="0" x2="35.5" y2="26" gradientUnits="userSpaceOnUse">
<stop stop-color="#141414"/>
<stop offset="0.0001" stop-color="#232325"/>
<stop offset="1" stop-color="#18181B"/>
</linearGradient>
<linearGradient id="paint1_linear_336_80" x1="16" y1="6" x2="16" y2="19.5345" gradientUnits="userSpaceOnUse">
<stop stop-color="#C4C4C4"/>
<stop offset="1" stop-color="#8E8E8E"/>
</linearGradient>
<linearGradient id="paint2_linear_336_80" x1="44.5" y1="2" x2="44.5" y2="25" gradientUnits="userSpaceOnUse">
<stop stop-color="white"/>
<stop offset="1" stop-color="#CECECE" stop-opacity="0.81"/>
</linearGradient>
</defs>
</svg>
