<svg width="83" height="26" viewBox="0 0 83 26" fill="none" xmlns="http://www.w3.org/2000/svg">
<rect width="83" height="26" rx="4" fill="url(#paint0_linear_338_120)"/>
<path d="M30.986 7.1V19H33.23V14.053H38.228V12.013H33.23V9.14H38.568V7.1H30.986ZM38.235 8.12C38.235 8.987 38.898 9.582 39.748 9.582C40.598 9.582 41.261 8.987 41.261 8.12C41.261 7.253 40.598 6.658 39.748 6.658C38.898 6.658 38.235 7.253 38.235 8.12ZM40.819 10.568H38.677V19H40.819V10.568ZM47.7938 10.568V11.707H47.6238C47.1138 10.976 46.2978 10.33 44.8358 10.33C42.8298 10.33 41.0278 12.03 41.0278 14.648C41.0278 17.266 42.8298 18.966 44.8358 18.966C46.2978 18.966 47.1138 18.303 47.5898 17.64H47.7598V18.456C47.7598 20.088 46.8078 20.836 45.4138 20.836C44.0198 20.836 43.3058 20.088 43.0168 19.119L41.0958 19.952C41.5378 21.227 42.8298 22.638 45.4478 22.638C48.1338 22.638 49.9018 21.227 49.9018 18.507V10.568H47.7938ZM45.4818 17.13C44.1558 17.13 43.1698 16.178 43.1698 14.648C43.1698 13.118 44.1558 12.166 45.4818 12.166C46.8078 12.166 47.7938 13.118 47.7938 14.648C47.7938 16.178 46.8078 17.13 45.4818 17.13ZM50.6076 10.568V19H52.7496V13.968C52.7496 12.812 53.2936 12.166 54.2796 12.166C55.1296 12.166 55.6396 12.642 55.6396 13.56V19H57.7816V13.968C57.7816 12.812 58.3256 12.166 59.3116 12.166C60.1616 12.166 60.6716 12.642 60.6716 13.56V19H62.8136V13.458C62.8136 11.418 61.5556 10.432 59.9916 10.432C58.6146 10.432 57.9856 11.044 57.5776 11.758H57.4076C57.0166 10.959 56.3196 10.432 55.0956 10.432C53.8716 10.432 53.2086 10.976 52.8856 11.622H52.7156V10.568H50.6076ZM63.3273 12.71L65.2993 13.373C65.4523 12.608 65.9623 12.03 67.0333 12.03C68.1213 12.03 68.5973 12.642 68.5973 13.424V13.9H66.2853C64.3813 13.9 63.0213 14.801 63.0213 16.535C63.0213 18.269 64.3813 19.238 66.1153 19.238C67.6793 19.238 68.2403 18.388 68.3933 18.014H68.6313V19H70.6713V13.577C70.6713 11.469 69.2773 10.33 67.0673 10.33C64.8743 10.33 63.7353 11.435 63.3273 12.71ZM65.1633 16.484C65.1633 15.906 65.6393 15.498 66.4383 15.498H68.5973V15.634C68.5973 16.756 67.7473 17.504 66.5573 17.504C65.6393 17.504 65.1633 17.079 65.1633 16.484Z" fill="url(#paint1_linear_338_120)"/>
<path d="M11 13.5C11 12.12 12.1202 11 13.5 11H16V16H13.5C12.1202 16 11 14.88 11 13.5Z" fill="url(#paint2_linear_338_120)"/>
<path d="M13.5 20.5312C14.88 20.5312 16 19.5162 16 18.2656V16H13.5C12.12 16 11 17.015 11 18.2656C11 19.5162 12.12 20.5312 13.5 20.5312Z" fill="url(#paint3_linear_338_120)"/>
<path d="M11 8.5C11 7.12 12.12 6 13.5 6H16V11H13.5C12.12 11 11 9.88 11 8.5Z" fill="url(#paint4_linear_338_120)"/>
<path d="M16 6H18.5C19.88 6 21 7.12 21 8.5C21 9.88 19.88 11 18.5 11H16V6Z" fill="url(#paint5_linear_338_120)"/>
<path d="M21 13.5C21 14.88 19.88 16 18.5 16C17.12 16 16 14.88 16 13.5C16 12.12 17.12 11 18.5 11C19.88 11 21 12.12 21 13.5Z" fill="url(#paint6_linear_338_120)"/>
<defs>
<linearGradient id="paint0_linear_338_120" x1="41.5" y1="0" x2="41.5" y2="26" gradientUnits="userSpaceOnUse">
<stop stop-color="#141414"/>
<stop offset="0.0001" stop-color="#232325"/>
<stop offset="1" stop-color="#18181B"/>
</linearGradient>
<linearGradient id="paint1_linear_338_120" x1="51" y1="2" x2="51" y2="25" gradientUnits="userSpaceOnUse">
<stop stop-color="white"/>
<stop offset="1" stop-color="#CECECE" stop-opacity="0.81"/>
</linearGradient>
<linearGradient id="paint2_linear_338_120" x1="16" y1="6" x2="16" y2="20.5312" gradientUnits="userSpaceOnUse">
<stop stop-color="#C4C4C4"/>
<stop offset="1" stop-color="#8E8E8E"/>
</linearGradient>
<linearGradient id="paint3_linear_338_120" x1="16" y1="6" x2="16" y2="20.5312" gradientUnits="userSpaceOnUse">
<stop stop-color="#C4C4C4"/>
<stop offset="1" stop-color="#8E8E8E"/>
</linearGradient>
<linearGradient id="paint4_linear_338_120" x1="16" y1="6" x2="16" y2="20.5312" gradientUnits="userSpaceOnUse">
<stop stop-color="#C4C4C4"/>
<stop offset="1" stop-color="#8E8E8E"/>
</linearGradient>
<linearGradient id="paint5_linear_338_120" x1="16" y1="6" x2="16" y2="20.5312" gradientUnits="userSpaceOnUse">
<stop stop-color="#C4C4C4"/>
<stop offset="1" stop-color="#8E8E8E"/>
</linearGradient>
<linearGradient id="paint6_linear_338_120" x1="16" y1="6" x2="16" y2="20.5312" gradientUnits="userSpaceOnUse">
<stop stop-color="#C4C4C4"/>
<stop offset="1" stop-color="#8E8E8E"/>
</linearGradient>
</defs>
</svg>
