<svg width="61" height="26" viewBox="0 0 61 26" fill="none" xmlns="http://www.w3.org/2000/svg">
<rect width="61" height="26" rx="4" fill="url(#paint0_linear_338_121)"/>
<path d="M30.51 14.478C30.51 17.538 32.448 19.238 35.44 19.238C38.432 19.238 40.132 17.538 40.132 14.716V12.982H35.032V14.886H37.922V14.988C37.922 16.348 37.072 17.232 35.44 17.232C33.808 17.232 32.754 16.178 32.754 14.512V11.588C32.754 9.922 33.808 8.868 35.44 8.868C37.072 8.868 37.82 9.82 37.82 11.044V11.282H40.064V11.078C40.064 8.562 38.432 6.862 35.44 6.862C32.448 6.862 30.51 8.562 30.51 11.622V14.478ZM39.9616 8.12C39.9616 8.987 40.6246 9.582 41.4746 9.582C42.3246 9.582 42.9876 8.987 42.9876 8.12C42.9876 7.253 42.3246 6.658 41.4746 6.658C40.6246 6.658 39.9616 7.253 39.9616 8.12ZM42.5456 10.568H40.4036V19H42.5456V10.568ZM42.3804 12.302H44.4884V17.096C44.4884 18.252 45.2364 19 46.3584 19H48.7384V17.266H47.1064C46.8004 17.266 46.6304 17.096 46.6304 16.756V12.302H48.9424V10.568H46.6304V7.95H44.4884V10.568H42.3804V12.302Z" fill="url(#paint1_linear_338_121)"/>
<path d="M22.7381 12.3758L16.6242 6.26187C16.4539 6.09407 16.2245 6 15.9854 6C15.7463 6 15.5169 6.09407 15.3466 6.26187L14.0807 7.53366L15.6908 9.14381C15.8806 9.07863 16.0849 9.06826 16.2804 9.11391C16.4758 9.15955 16.6544 9.25935 16.7957 9.40187C16.937 9.54438 17.0353 9.72383 17.0792 9.91965C17.1232 10.1155 17.1111 10.3197 17.0443 10.5089L18.5961 12.0607C18.7778 11.9945 18.9741 11.9786 19.1642 12.0147C19.3542 12.0508 19.531 12.1376 19.6757 12.266C19.8205 12.3943 19.9279 12.5593 19.9866 12.7437C20.0453 12.928 20.053 13.1248 20.0091 13.3132C19.9651 13.5016 19.8711 13.6746 19.7369 13.8139C19.6027 13.9532 19.4333 14.0537 19.2467 14.1047C19.0601 14.1557 18.8632 14.1553 18.6767 14.1036C18.4903 14.0519 18.3214 13.9508 18.1877 13.8109C18.0387 13.6607 17.9372 13.47 17.8957 13.2626C17.8542 13.0551 17.8746 12.8401 17.9543 12.6441L16.5075 11.2498V15.0535C16.6105 15.1073 16.7049 15.1761 16.7876 15.2577C16.9523 15.4211 17.06 15.6332 17.0947 15.8626C17.1294 16.092 17.0893 16.3265 16.9802 16.5313C16.8711 16.7361 16.699 16.9003 16.4893 16.9996C16.2796 17.0988 16.0434 17.1278 15.8159 17.0823C15.5884 17.0368 15.3816 16.9192 15.2262 16.7469C15.0708 16.5747 14.975 16.3569 14.9531 16.1259C14.9312 15.8949 14.9844 15.663 15.1046 15.4646C15.2249 15.2662 15.4059 15.1118 15.6208 15.0244V11.1507C15.4889 11.0983 15.3689 11.0199 15.2678 10.9204C15.1667 10.8208 15.0866 10.7019 15.0322 10.5709C14.9778 10.4398 14.9503 10.2992 14.9512 10.1573C14.952 10.0154 14.9814 9.87507 15.0374 9.7447L13.4564 8.15788L9.26187 12.3466C9.09407 12.5169 9 12.7463 9 12.9854C9 13.2245 9.09407 13.4539 9.26187 13.6242L15.3758 19.7381C15.5461 19.9059 15.7755 20 16.0146 20C16.2537 20 16.4831 19.9059 16.6534 19.7381L22.7381 13.6534C22.9059 13.4831 23 13.2537 23 13.0146C23 12.7755 22.9059 12.5461 22.7381 12.3758" fill="url(#paint2_linear_338_121)"/>
<defs>
<linearGradient id="paint0_linear_338_121" x1="30.5" y1="0" x2="30.5" y2="26" gradientUnits="userSpaceOnUse">
<stop stop-color="#141414"/>
<stop offset="0.0001" stop-color="#232325"/>
<stop offset="1" stop-color="#18181B"/>
</linearGradient>
<linearGradient id="paint1_linear_338_121" x1="40" y1="2" x2="40" y2="25" gradientUnits="userSpaceOnUse">
<stop stop-color="white"/>
<stop offset="1" stop-color="#CECECE" stop-opacity="0.81"/>
</linearGradient>
<linearGradient id="paint2_linear_338_121" x1="16" y1="6" x2="16" y2="20" gradientUnits="userSpaceOnUse">
<stop stop-color="#C4C4C4"/>
<stop offset="1" stop-color="#8E8E8E"/>
</linearGradient>
</defs>
</svg>
