<svg width="100" height="26" viewBox="0 0 100 26" fill="none" xmlns="http://www.w3.org/2000/svg">
<rect width="100" height="26" rx="4" fill="url(#paint0_linear_336_81)"/>
<path d="M12.986 6.1V18H20.738V15.96H15.23V6.1H12.986ZM20.6082 11.71L22.5802 12.373C22.7332 11.608 23.2432 11.03 24.3142 11.03C25.4022 11.03 25.8782 11.642 25.8782 12.424V12.9H23.5662C21.6622 12.9 20.3022 13.801 20.3022 15.535C20.3022 17.269 21.6622 18.238 23.3962 18.238C24.9602 18.238 25.5212 17.388 25.6742 17.014H25.9122V18H27.9522V12.577C27.9522 10.469 26.5582 9.33 24.3482 9.33C22.1552 9.33 21.0162 10.435 20.6082 11.71ZM22.4442 15.484C22.4442 14.906 22.9202 14.498 23.7192 14.498H25.8782V14.634C25.8782 15.756 25.0282 16.504 23.8382 16.504C22.9202 16.504 22.4442 16.079 22.4442 15.484ZM28.5681 9.568V18H30.7101V13.648C30.7101 12.084 31.4751 11.166 32.7841 11.166C33.9401 11.166 34.5861 11.795 34.5861 13.07V18H36.7281V12.968C36.7281 10.877 35.4191 9.432 33.4471 9.432C31.9001 9.432 31.1861 10.112 30.8461 10.826H30.6761V9.568H28.5681ZM43.595 9.568V10.707H43.425C42.915 9.976 42.099 9.33 40.637 9.33C38.631 9.33 36.829 11.03 36.829 13.648C36.829 16.266 38.631 17.966 40.637 17.966C42.099 17.966 42.915 17.303 43.391 16.64H43.561V17.456C43.561 19.088 42.609 19.836 41.215 19.836C39.821 19.836 39.107 19.088 38.818 18.119L36.897 18.952C37.339 20.227 38.631 21.638 41.249 21.638C43.935 21.638 45.703 20.227 45.703 17.507V9.568H43.595ZM41.283 16.13C39.957 16.13 38.971 15.178 38.971 13.648C38.971 12.118 39.957 11.166 41.283 11.166C42.609 11.166 43.595 12.118 43.595 13.648C43.595 15.178 42.609 16.13 41.283 16.13ZM54.6028 18V9.568H52.4608V13.92C52.4608 15.484 51.6958 16.402 50.3868 16.402C49.2308 16.402 48.5848 15.773 48.5848 14.498V9.568H46.4428V14.6C46.4428 16.691 47.7518 18.136 49.7238 18.136C51.2708 18.136 51.9848 17.456 52.3248 16.742H52.4948V18H54.6028ZM55.2105 11.71L57.1825 12.373C57.3355 11.608 57.8455 11.03 58.9165 11.03C60.0045 11.03 60.4805 11.642 60.4805 12.424V12.9H58.1685C56.2645 12.9 54.9045 13.801 54.9045 15.535C54.9045 17.269 56.2645 18.238 57.9985 18.238C59.5625 18.238 60.1235 17.388 60.2765 17.014H60.5145V18H62.5545V12.577C62.5545 10.469 61.1605 9.33 58.9505 9.33C56.7575 9.33 55.6185 10.435 55.2105 11.71ZM57.0465 15.484C57.0465 14.906 57.5225 14.498 58.3215 14.498H60.4805V14.634C60.4805 15.756 59.6305 16.504 58.4405 16.504C57.5225 16.504 57.0465 16.079 57.0465 15.484ZM69.4264 9.568V10.707H69.2564C68.7464 9.976 67.9304 9.33 66.4684 9.33C64.4624 9.33 62.6604 11.03 62.6604 13.648C62.6604 16.266 64.4624 17.966 66.4684 17.966C67.9304 17.966 68.7464 17.303 69.2224 16.64H69.3924V17.456C69.3924 19.088 68.4404 19.836 67.0464 19.836C65.6524 19.836 64.9384 19.088 64.6494 18.119L62.7284 18.952C63.1704 20.227 64.4624 21.638 67.0804 21.638C69.7664 21.638 71.5344 20.227 71.5344 17.507V9.568H69.4264ZM67.1144 16.13C65.7884 16.13 64.8024 15.178 64.8024 13.648C64.8024 12.118 65.7884 11.166 67.1144 11.166C68.4404 11.166 69.4264 12.118 69.4264 13.648C69.4264 15.178 68.4404 16.13 67.1144 16.13ZM71.7302 13.784C71.7302 16.47 73.4812 18.238 75.9972 18.238C78.3092 18.238 79.3122 16.929 79.7882 16.028L78.0372 15.11C77.7482 15.756 77.2552 16.402 76.0652 16.402C74.8752 16.402 73.9742 15.569 73.9232 14.413H80.0602V13.682C80.0602 11.098 78.4452 9.33 75.9632 9.33C73.4812 9.33 71.7302 11.098 71.7302 13.784ZM73.9402 12.815C74.0762 11.88 74.7902 11.166 75.9462 11.166C77.0512 11.166 77.7822 11.846 77.8842 12.815H73.9402ZM80.0616 11.931C80.0616 13.597 81.4556 14.209 83.2236 14.549L83.6656 14.634C84.7196 14.838 85.1956 15.093 85.1956 15.637C85.1956 16.181 84.7196 16.606 83.7336 16.606C82.7476 16.606 81.9486 16.198 81.7276 14.974L79.7556 15.484C80.0446 17.252 81.5236 18.238 83.7336 18.238C85.8756 18.238 87.2696 17.235 87.2696 15.467C87.2696 13.699 85.8416 13.223 83.9376 12.849L83.4956 12.764C82.6116 12.594 82.1356 12.356 82.1356 11.795C82.1356 11.285 82.5776 10.962 83.3936 10.962C84.2096 10.962 84.7876 11.302 84.9916 12.22L86.9296 11.625C86.5216 10.265 85.2806 9.33 83.3936 9.33C81.3876 9.33 80.0616 10.265 80.0616 11.931Z" fill="url(#paint1_linear_336_81)"/>
<defs>
<linearGradient id="paint0_linear_336_81" x1="50" y1="0" x2="50" y2="26" gradientUnits="userSpaceOnUse">
<stop stop-color="#EEEEEE"/>
<stop offset="1" stop-color="#CECECE" stop-opacity="0.81"/>
</linearGradient>
<linearGradient id="paint1_linear_336_81" x1="50" y1="1" x2="50" y2="24" gradientUnits="userSpaceOnUse">
<stop stop-color="#141414"/>
<stop offset="0.0001" stop-color="#232325"/>
<stop offset="1" stop-color="#18181B"/>
</linearGradient>
</defs>
</svg>
