<svg width="60" height="26" viewBox="0 0 60 26" fill="none" xmlns="http://www.w3.org/2000/svg">
<rect width="60" height="26" rx="4" fill="url(#paint0_linear_338_86)"/>
<path d="M12.136 7.1V9.14H15.74V19H17.984V9.14H21.588V7.1H12.136ZM19.2872 14.784C19.2872 17.538 21.1912 19.238 23.7072 19.238C26.2232 19.238 28.1272 17.538 28.1272 14.784C28.1272 12.03 26.2232 10.33 23.7072 10.33C21.1912 10.33 19.2872 12.03 19.2872 14.784ZM21.4292 14.784C21.4292 13.152 22.3812 12.2 23.7072 12.2C25.0332 12.2 25.9852 13.152 25.9852 14.784C25.9852 16.416 25.0332 17.368 23.7072 17.368C22.3812 17.368 21.4292 16.416 21.4292 14.784ZM27.8257 14.784C27.8257 17.538 29.7297 19.238 32.2457 19.238C34.7617 19.238 36.6657 17.538 36.6657 14.784C36.6657 12.03 34.7617 10.33 32.2457 10.33C29.7297 10.33 27.8257 12.03 27.8257 14.784ZM29.9677 14.784C29.9677 13.152 30.9197 12.2 32.2457 12.2C33.5717 12.2 34.5237 13.152 34.5237 14.784C34.5237 16.416 33.5717 17.368 32.2457 17.368C30.9197 17.368 29.9677 16.416 29.9677 14.784ZM39.0162 7.1H36.8742V19H39.0162V7.1ZM39.599 12.931C39.599 14.597 40.993 15.209 42.761 15.549L43.203 15.634C44.257 15.838 44.733 16.093 44.733 16.637C44.733 17.181 44.257 17.606 43.271 17.606C42.285 17.606 41.486 17.198 41.265 15.974L39.293 16.484C39.582 18.252 41.061 19.238 43.271 19.238C45.413 19.238 46.807 18.235 46.807 16.467C46.807 14.699 45.379 14.223 43.475 13.849L43.033 13.764C42.149 13.594 41.673 13.356 41.673 12.795C41.673 12.285 42.115 11.962 42.931 11.962C43.747 11.962 44.325 12.302 44.529 13.22L46.467 12.625C46.059 11.265 44.818 10.33 42.931 10.33C40.925 10.33 39.599 11.265 39.599 12.931Z" fill="url(#paint1_linear_338_86)"/>
<defs>
<linearGradient id="paint0_linear_338_86" x1="30" y1="0" x2="30" y2="26" gradientUnits="userSpaceOnUse">
<stop stop-color="#EEEEEE"/>
<stop offset="1" stop-color="#CECECE" stop-opacity="0.81"/>
</linearGradient>
<linearGradient id="paint1_linear_338_86" x1="30" y1="2" x2="30" y2="25" gradientUnits="userSpaceOnUse">
<stop stop-color="#141414"/>
<stop offset="0.0001" stop-color="#232325"/>
<stop offset="1" stop-color="#18181B"/>
</linearGradient>
</defs>
</svg>
