<svg width="114" height="26" viewBox="0 0 114 26" fill="none" xmlns="http://www.w3.org/2000/svg">
<rect width="114" height="26" rx="4" fill="url(#paint0_linear_503_2)"/>
<path d="M30.136 7.1V9.14H33.74V19H35.984V9.14H39.588V7.1H30.136ZM44.4958 10.568L42.2688 16.654H42.0988L39.8718 10.568H37.5598L41.0618 19.544L39.8718 22.4H42.1838L46.8078 10.568H44.4958ZM46.6013 22.4H48.7433V17.912H48.9133C49.3893 18.592 50.2053 19.238 51.6673 19.238C53.6733 19.238 55.4753 17.538 55.4753 14.784C55.4753 12.03 53.6733 10.33 51.6673 10.33C50.2053 10.33 49.3893 10.976 48.8793 11.707H48.7093V10.568H46.6013V22.4ZM51.0213 17.402C49.6953 17.402 48.7093 16.45 48.7093 14.784C48.7093 13.118 49.6953 12.166 51.0213 12.166C52.3473 12.166 53.3333 13.118 53.3333 14.784C53.3333 16.45 52.3473 17.402 51.0213 17.402ZM55.1611 14.784C55.1611 17.47 56.9121 19.238 59.4281 19.238C61.7401 19.238 62.7431 17.929 63.2191 17.028L61.4681 16.11C61.1791 16.756 60.6861 17.402 59.4961 17.402C58.3061 17.402 57.4051 16.569 57.3541 15.413H63.4911V14.682C63.4911 12.098 61.8761 10.33 59.3941 10.33C56.9121 10.33 55.1611 12.098 55.1611 14.784ZM57.3711 13.815C57.5071 12.88 58.2211 12.166 59.3771 12.166C60.4821 12.166 61.2131 12.846 61.3151 13.815H57.3711ZM63.4925 12.931C63.4925 14.597 64.8865 15.209 66.6545 15.549L67.0965 15.634C68.1505 15.838 68.6265 16.093 68.6265 16.637C68.6265 17.181 68.1505 17.606 67.1645 17.606C66.1785 17.606 65.3795 17.198 65.1585 15.974L63.1865 16.484C63.4755 18.252 64.9545 19.238 67.1645 19.238C69.3065 19.238 70.7005 18.235 70.7005 16.467C70.7005 14.699 69.2725 14.223 67.3685 13.849L66.9265 13.764C66.0425 13.594 65.5665 13.356 65.5665 12.795C65.5665 12.285 66.0085 11.962 66.8245 11.962C67.6405 11.962 68.2185 12.302 68.4225 13.22L70.3605 12.625C69.9525 11.265 68.7115 10.33 66.8245 10.33C64.8185 10.33 63.4925 11.265 63.4925 12.931ZM70.4285 14.784C70.4285 17.402 72.3665 19.238 74.8145 19.238C77.1775 19.238 78.5545 17.861 79.0305 16.008L76.9565 15.515C76.7695 16.603 76.1405 17.368 74.8485 17.368C73.5565 17.368 72.5705 16.416 72.5705 14.784C72.5705 13.152 73.5565 12.2 74.8485 12.2C76.1405 12.2 76.7695 13.016 76.8885 14.036L78.9625 13.594C78.5885 11.707 77.1605 10.33 74.8145 10.33C72.3665 10.33 70.4285 12.166 70.4285 14.784ZM81.2696 10.568H79.1616V19H81.3036V14.104C81.3036 12.914 82.0856 12.336 83.1736 12.336H84.4316V10.534H83.5476C82.4766 10.534 81.7626 10.857 81.4396 11.758H81.2696V10.568ZM83.888 8.12C83.888 8.987 84.551 9.582 85.401 9.582C86.251 9.582 86.914 8.987 86.914 8.12C86.914 7.253 86.251 6.658 85.401 6.658C84.551 6.658 83.888 7.253 83.888 8.12ZM86.472 10.568H84.33V19H86.472V10.568ZM87.1908 22.4H89.3328V17.912H89.5028C89.9788 18.592 90.7948 19.238 92.2568 19.238C94.2628 19.238 96.0648 17.538 96.0648 14.784C96.0648 12.03 94.2628 10.33 92.2568 10.33C90.7948 10.33 89.9788 10.976 89.4688 11.707H89.2988V10.568H87.1908V22.4ZM91.6108 17.402C90.2848 17.402 89.2988 16.45 89.2988 14.784C89.2988 13.118 90.2848 12.166 91.6108 12.166C92.9368 12.166 93.9228 13.118 93.9228 14.784C93.9228 16.45 92.9368 17.402 91.6108 17.402ZM95.2935 12.302H97.4015V17.096C97.4015 18.252 98.1495 19 99.2715 19H101.652V17.266H100.02C99.7135 17.266 99.5435 17.096 99.5435 16.756V12.302H101.856V10.568H99.5435V7.95H97.4015V10.568H95.2935V12.302Z" fill="url(#paint1_linear_503_2)"/>
<path fill-rule="evenodd" clip-rule="evenodd" d="M11 6C9.89542 6 9 6.89543 9 8V18C9 19.1046 9.89542 20 11 20H21C22.1046 20 23 19.1046 23 18V8C23 6.89543 22.1046 6 21 6H11ZM12.072 12.78V11.7H17.076V12.121C17.4646 11.7671 18.0472 11.574 18.7646 11.574C20.1146 11.574 21.0956 12.258 21.0956 13.626V13.77H19.9256V13.626C19.9256 12.906 19.4846 12.618 18.7646 12.618C18.0446 12.618 17.7115 12.906 17.7115 13.374C17.7115 13.842 18.0446 14.058 18.8185 14.229L19.0255 14.274C20.3665 14.562 21.2216 15.03 21.2216 16.182C21.2216 17.334 20.2946 18.126 18.8365 18.126C17.3785 18.126 16.3615 17.316 16.3615 15.948V15.858H17.5316V15.948C17.5316 16.704 18.0266 17.082 18.8365 17.082C19.6465 17.082 20.0515 16.722 20.0515 16.218C20.0515 15.696 19.6285 15.516 18.8185 15.336L18.6115 15.291C17.2885 15.003 16.5416 14.562 16.5416 13.41C16.5416 13.1809 16.5761 12.9704 16.642 12.78H15.168V18H13.98V12.78H12.072Z" fill="url(#paint2_linear_503_2)"/>
<defs>
<linearGradient id="paint0_linear_503_2" x1="57" y1="0" x2="57" y2="26" gradientUnits="userSpaceOnUse">
<stop stop-color="#141414"/>
<stop offset="0.0001" stop-color="#232325"/>
<stop offset="1" stop-color="#18181B"/>
</linearGradient>
<linearGradient id="paint1_linear_503_2" x1="66.5" y1="2" x2="66.5" y2="25" gradientUnits="userSpaceOnUse">
<stop stop-color="white"/>
<stop offset="1" stop-color="#CECECE" stop-opacity="0.81"/>
</linearGradient>
<linearGradient id="paint2_linear_503_2" x1="16" y1="6" x2="16" y2="20" gradientUnits="userSpaceOnUse">
<stop stop-color="#C4C4C4"/>
<stop offset="1" stop-color="#8E8E8E"/>
</linearGradient>
</defs>
</svg>
