<svg width="167" height="26" viewBox="0 0 167 26" fill="none" xmlns="http://www.w3.org/2000/svg">
<rect width="167" height="26" rx="4" fill="url(#paint0_linear_338_106)"/>
<path d="M30.034 7.1L33.349 19H36.885L40.2 7.1H37.905L35.202 17.164H35.032L32.329 7.1H30.034ZM39.5466 8.12C39.5466 8.987 40.2096 9.582 41.0596 9.582C41.9096 9.582 42.5726 8.987 42.5726 8.12C42.5726 7.253 41.9096 6.658 41.0596 6.658C40.2096 6.658 39.5466 7.253 39.5466 8.12ZM42.1306 10.568H39.9886V19H42.1306V10.568ZM42.7133 12.931C42.7133 14.597 44.1073 15.209 45.8753 15.549L46.3173 15.634C47.3713 15.838 47.8473 16.093 47.8473 16.637C47.8473 17.181 47.3713 17.606 46.3853 17.606C45.3993 17.606 44.6003 17.198 44.3793 15.974L42.4073 16.484C42.6963 18.252 44.1753 19.238 46.3853 19.238C48.5273 19.238 49.9213 18.235 49.9213 16.467C49.9213 14.699 48.4933 14.223 46.5893 13.849L46.1473 13.764C45.2633 13.594 44.7873 13.356 44.7873 12.795C44.7873 12.285 45.2293 11.962 46.0453 11.962C46.8613 11.962 47.4393 12.302 47.6433 13.22L49.5813 12.625C49.1733 11.265 47.9323 10.33 46.0453 10.33C44.0393 10.33 42.7133 11.265 42.7133 12.931ZM58.3533 19V10.568H56.2113V14.92C56.2113 16.484 55.4463 17.402 54.1373 17.402C52.9813 17.402 52.3353 16.773 52.3353 15.498V10.568H50.1933V15.6C50.1933 17.691 51.5023 19.136 53.4743 19.136C55.0213 19.136 55.7353 18.456 56.0753 17.742H56.2453V19H58.3533ZM58.9611 12.71L60.9331 13.373C61.0861 12.608 61.5961 12.03 62.6671 12.03C63.7551 12.03 64.2311 12.642 64.2311 13.424V13.9H61.9191C60.0151 13.9 58.6551 14.801 58.6551 16.535C58.6551 18.269 60.0151 19.238 61.7491 19.238C63.3131 19.238 63.8741 18.388 64.0271 18.014H64.2651V19H66.3051V13.577C66.3051 11.469 64.9111 10.33 62.7011 10.33C60.5081 10.33 59.3691 11.435 58.9611 12.71ZM60.7971 16.484C60.7971 15.906 61.2731 15.498 62.0721 15.498H64.2311V15.634C64.2311 16.756 63.3811 17.504 62.1911 17.504C61.2731 17.504 60.7971 17.079 60.7971 16.484ZM69.0629 7.1H66.9209V19H69.0629V7.1ZM77.1348 6.862C74.5848 6.862 72.9358 8.154 72.9358 10.33C72.9358 12.506 74.3468 13.339 76.8458 13.883L77.2368 13.968C78.7668 14.308 79.5658 14.648 79.5658 15.634C79.5658 16.586 78.8008 17.266 77.2708 17.266C75.7408 17.266 74.8058 16.552 74.8058 15.124V14.954H72.5958V15.124C72.5958 17.708 74.5168 19.238 77.2708 19.238C80.0248 19.238 81.7758 17.742 81.7758 15.566C81.7758 13.39 80.1608 12.506 77.6278 11.962L77.2368 11.877C75.7748 11.554 75.1458 11.146 75.1458 10.262C75.1458 9.378 75.7748 8.834 77.1348 8.834C78.4948 8.834 79.3278 9.378 79.3278 10.738V11.01H81.5378V10.738C81.5378 8.154 79.6848 6.862 77.1348 6.862ZM81.0607 12.302H83.1687V17.096C83.1687 18.252 83.9167 19 85.0387 19H87.4187V17.266H85.7867C85.4807 17.266 85.3107 17.096 85.3107 16.756V12.302H87.6227V10.568H85.3107V7.95H83.1687V10.568H81.0607V12.302ZM96.0542 19V10.568H93.9122V14.92C93.9122 16.484 93.1472 17.402 91.8382 17.402C90.6822 17.402 90.0362 16.773 90.0362 15.498V10.568H87.8942V15.6C87.8942 17.691 89.2032 19.136 91.1752 19.136C92.7222 19.136 93.4362 18.456 93.7762 17.742H93.9462V19H96.0542ZM105.128 7.1H102.986V11.656H102.816C102.34 10.976 101.524 10.33 100.062 10.33C98.0559 10.33 96.2539 12.03 96.2539 14.784C96.2539 17.538 98.0559 19.238 100.062 19.238C101.524 19.238 102.34 18.592 102.85 17.861H103.02V19H105.128V7.1ZM100.708 12.166C102.034 12.166 103.02 13.118 103.02 14.784C103.02 16.45 102.034 17.402 100.708 17.402C99.3819 17.402 98.3959 16.45 98.3959 14.784C98.3959 13.118 99.3819 12.166 100.708 12.166ZM105.392 8.12C105.392 8.987 106.055 9.582 106.905 9.582C107.755 9.582 108.418 8.987 108.418 8.12C108.418 7.253 107.755 6.658 106.905 6.658C106.055 6.658 105.392 7.253 105.392 8.12ZM107.976 10.568H105.834V19H107.976V10.568ZM108.184 14.784C108.184 17.538 110.088 19.238 112.604 19.238C115.12 19.238 117.024 17.538 117.024 14.784C117.024 12.03 115.12 10.33 112.604 10.33C110.088 10.33 108.184 12.03 108.184 14.784ZM110.326 14.784C110.326 13.152 111.278 12.2 112.604 12.2C113.93 12.2 114.882 13.152 114.882 14.784C114.882 16.416 113.93 17.368 112.604 17.368C111.278 17.368 110.326 16.416 110.326 14.784ZM120.183 14.478C120.183 17.538 122.087 19.238 125.079 19.238C128.071 19.238 129.805 17.538 129.805 14.954V14.512H127.561V14.988C127.561 16.178 126.711 17.232 125.079 17.232C123.447 17.232 122.427 16.178 122.427 14.512V11.588C122.427 9.922 123.447 8.868 125.079 8.868C126.711 8.868 127.561 9.922 127.561 11.112V11.452H129.805V11.146C129.805 8.562 128.071 6.862 125.079 6.862C122.087 6.862 120.183 8.562 120.183 11.622V14.478ZM129.5 14.784C129.5 17.538 131.404 19.238 133.92 19.238C136.436 19.238 138.34 17.538 138.34 14.784C138.34 12.03 136.436 10.33 133.92 10.33C131.404 10.33 129.5 12.03 129.5 14.784ZM131.642 14.784C131.642 13.152 132.594 12.2 133.92 12.2C135.246 12.2 136.198 13.152 136.198 14.784C136.198 16.416 135.246 17.368 133.92 17.368C132.594 17.368 131.642 16.416 131.642 14.784ZM146.913 7.1H144.771V11.656H144.601C144.125 10.976 143.309 10.33 141.847 10.33C139.841 10.33 138.039 12.03 138.039 14.784C138.039 17.538 139.841 19.238 141.847 19.238C143.309 19.238 144.125 18.592 144.635 17.861H144.805V19H146.913V7.1ZM142.493 12.166C143.819 12.166 144.805 13.118 144.805 14.784C144.805 16.45 143.819 17.402 142.493 17.402C141.167 17.402 140.181 16.45 140.181 14.784C140.181 13.118 141.167 12.166 142.493 12.166ZM147.108 14.784C147.108 17.47 148.859 19.238 151.375 19.238C153.687 19.238 154.69 17.929 155.166 17.028L153.415 16.11C153.126 16.756 152.633 17.402 151.443 17.402C150.253 17.402 149.352 16.569 149.301 15.413H155.438V14.682C155.438 12.098 153.823 10.33 151.341 10.33C148.859 10.33 147.108 12.098 147.108 14.784ZM149.318 13.815C149.454 12.88 150.168 12.166 151.324 12.166C152.429 12.166 153.16 12.846 153.262 13.815H149.318Z" fill="url(#paint1_linear_338_106)"/>
<path d="M22.7279 8.12398L19.362 6.10441C19.3468 6.09544 19.33 6.09095 19.3137 6.08366C19.091 5.95014 18.8032 5.97426 18.6187 6.17173L13.8957 11.2324L11.2927 8.84597C11.121 8.68889 10.8697 8.65467 10.6627 8.7579L9.31016 9.43389C9.1514 9.51299 9.03976 9.66165 9.00891 9.83612C8.97805 10.0106 9.03022 10.189 9.15084 10.318L11.9496 13.3171L9.15084 16.3161C9.03022 16.4451 8.97749 16.6241 9.00891 16.798C9.04032 16.9719 9.15196 17.1211 9.31016 17.2002L10.6627 17.8768C10.7424 17.9166 10.8282 17.9357 10.9135 17.9357C11.0419 17.9357 11.1698 17.8914 11.2731 17.8055L14.0101 15.5246L18.6187 20.4624C18.7292 20.5808 18.879 20.6408 19.0288 20.6408C19.1314 20.6408 19.2301 20.6032 19.3205 20.5471C19.3339 20.5404 19.3485 20.5376 19.3614 20.5297L22.7274 18.5101C22.8962 18.4092 23 18.2263 23 18.0294V8.60475C23 8.40784 22.8962 8.22496 22.7279 8.12398ZM10.8361 16.7088L10.4832 16.5327L12.7165 14.1395L13.2427 14.7033L10.8361 16.7088ZM18.5121 18.7037L10.4832 10.1015L10.8192 9.93374L18.5121 16.986V18.7037ZM18.5121 15.4634L16.4033 13.5302L18.5121 11.7732V15.4634ZM18.5121 10.3124L15.5686 12.7651L14.7232 11.9898L18.5121 7.93045V10.3124ZM21.878 17.7113L19.6341 19.0577V7.5759L21.878 8.92228V17.7113Z" fill="url(#paint2_linear_338_106)"/>
<defs>
<linearGradient id="paint0_linear_338_106" x1="83.5" y1="0" x2="83.5" y2="26" gradientUnits="userSpaceOnUse">
<stop stop-color="#141414"/>
<stop offset="0.0001" stop-color="#232325"/>
<stop offset="1" stop-color="#18181B"/>
</linearGradient>
<linearGradient id="paint1_linear_338_106" x1="93" y1="2" x2="93" y2="25" gradientUnits="userSpaceOnUse">
<stop stop-color="white"/>
<stop offset="1" stop-color="#CECECE" stop-opacity="0.81"/>
</linearGradient>
<linearGradient id="paint2_linear_338_106" x1="16" y1="6" x2="16" y2="20.6408" gradientUnits="userSpaceOnUse">
<stop stop-color="#C4C4C4"/>
<stop offset="1" stop-color="#8E8E8E"/>
</linearGradient>
</defs>
</svg>
